<svg width="1109" height="298" version="1.1" viewBox="0 0 1109 298" xmlns="http://www.w3.org/2000/svg">
	<path d="m0 298v-231l24.8-.881 2.23-3.18h8.65l1.63 3.03 3.27.0305 3.44-59.1h4.73v-1.23l6.46-2.02h7.86l3.02 2.21-2.39 60.8 7.96-.597 3.16-57.1 1.5-3.66h3.15l5.41-2.84 1.05-1.44 8.59.822 2.28 3.06-1.33 36.6.0085 7.55 2.99 3.3-.509 12.2 1.04 1.04 1.82-3.39h7.19l1.74 3.25h2.43l.908 2.36 7.01 1.05 3.57-1.13-1.04-7.55-.877-4.47h2.56v6.21l4.06 3.53v-1.61l3.51-3.51 1.02-4.98 5.09-1.46 5.01 2.22v5.29h1.3l1.83-1.83 7.13-.31-.713 3.74 1.03 4.09h2.89l1.64 1.64.422-15.8.792-1.28h11l2.13 3.98.987-.115 2.03.193v4.7l3.8.95 1.64 3.67 1.1-5.84 3.5-3.06-1.08 1.85 5.6 1.05 3.16-1.97 4.62 3.08 1.63.219 9.32.247 1.04 4.16 2.37-.908h1.49v-4.31l15 .993 6.52 2.39-1.63.14 2.44 1.55.81-10.1 2.03.406v-2.44h2.24l2.11 2.55 4.64 2.4-.963 1.55h3.97l1.08 7.25 3.22 1.02 12.6.582 2.27.508 1.19-10.2 1.01-1.63h4.66l2.56 2.56-.67 1.09 7.43.491 1.44.889-.871 2.27h1.37l1.02-5.07v-3.86h4.87v-4.06h5.68v9.2l.658-.676 1.01-6.4.95-.908-.78 6.94 2.13-1.77.503-4.34 2.55-.482 1.92 8.29v6.46l1.63-1.01v-3.57l7.74.592 1.63 1.27 8.53-.841v-1.98l3.15-2.84 1.91 1.18 1.42-2.24.0249 6.09h5.39l.394-7.61.816-1.32h4.78v8.04l1.62.999 2-4.56.847-.81 1.8-3.25 16.9-.498 6.88 1.01v4.64l2.03.688 5.52-1.51 3.82.731v-2.13l5.84 2.44-.975-1.58 2.14-2.16 1.11-2.94 6.09.505.484 10.1h2.11l.331-11.8 2.24-2.27 7.43 3.48h5.57l2.57.987v4.14l3.25-2.94.114 1.47 1.4-3.25.114-4.88 4.79-4.53 2.92 1.57 2.84.877.406 10.2 4.06 2.83 1.22.011v-4.87h4.68l.883 3.37 7.01-1.02 10.2-.475 1.87-1.87h3.84l2.74 1.45 1.69-1.86.414-8.1 4.31-3.85 9.81 1.27 15.8.557-.292 8.27 2.29 1.45 2.73.0249 2.07 9.26 1.34-5.18h9.14l3 2.71 3.62-3.91.5 6.88h2.16l.847-3.25 4.22-.203 1.75-.203 2.08-2.84h4.76l-.064 4.31 1.82.627.944-4.73 3.33-.871.0249 4.31 1.4-2.2 3.45 1.85 8.53.908.542 1.47h1.49v-2.44h3.34l-.999-1.61 1.49-2.66 1.04 5.54 3.33 2.85 5.53-1.04 2.73-8.35 1.61-2.03h3.86l.192 8.53-.213 1.81 4.49-.81 2.03-1.6v-3.86h1.63l.256 3.66-.0755 2.03 1.04-.0249 2.24-1.42-1.18-1.91 1.17-20.2h16v16.9l1.01 5.03 3.18-1.71 2.48.95-.932 2.42h1.57v-1.6l4.08-1.02 2.08 1.72.258-3.42 1.63-1.01 6.58.627-.139 4.11 2.17 1.38 1.22.0249v-6.52h4.54l.407-6.04 1.96-1.24 1.63.506.813 9.48 2.85.41-.847-1.37 1.65-1.02v-3.16h4.8l.48-11 17.1.534.35.35.3 10.9 3.42.0236 7.31 2.55 2.91 3.12 1.16-.0248 1.63-1.19.56-3.25.621-.64 2.47 2.05v3.05h.835l3.19-1.99 2.42 3.21.0512-2.14 2.45-2.45-.926-1.49h7.19l7.55 1.04v3.07l3.92 1.49 1.06 3.34h1.3l1.15-10.1 2.2-2.44.116-3.66h5.68l.256 11-.0755 2.03h1.37l1.29-12.6 5.28-.509v1.63l2.84.045 4.06.658 2.03.207v2.44h1.63v-6.4l1.63-1.01.256 4.57-.0755 2.03h10.3l.81 1.32.363 10.1h4.61v-5.68h3.25l.192 2.84-.328 1.63 1.27-1.27.406-2.77 1.71-.571v-5.68l2.03.67.813 9.63 1.22-7.92.311-18 .637.17.271 14.5 4.86.574 4.27 3.04 1.02 5.12.0244 3.45 1.35 2.13 8.35.707-1.77-24.1 12-1.01 4.03.969 2.03 2.54v13.3l1.02 5.12 3.11-.987 2.21 1.84 1.16-1.88 1.49 2.21-1.1-25.6h10.8l.0706 11 1.4 7.25 1.78.593v8.04l4.04-1.01 3.93-.236-.752-1.22h2.21l2 2 .95-3.62 19.7.105 2.64.755.993-3.7.0232-3.45 5.07-1.02h12.7l1.74-3.25h7.31l1.7 4.87h2.2l1.56 2.78 11.3.64 1.02-3.83.0231-5.28 11.4-.276v-3.67l8.53-1.02 19.5.501 1.56 19.1h.938l1.97-33.6.847.847 4.95 29.3.446 3.03 25.8-.217 15.4-1.22 2.01-1.59.865 2.21 12.5.118 3.4 1.83 18.5-.011 11.4-1.34 5.91-1.19 5.11 3.78 30.1.135.78-1.25 3.17 1.98v230z" style="stroke-width:.81"/>
</svg>
