<?xml version="1.0" encoding="UTF-8" standalone="no"?>
<svg
   xmlns:dc="http://purl.org/dc/elements/1.1/"
   xmlns:cc="http://creativecommons.org/ns#"
   xmlns:rdf="http://www.w3.org/1999/02/22-rdf-syntax-ns#"
   xmlns:svg="http://www.w3.org/2000/svg"
   xmlns="http://www.w3.org/2000/svg"
   xmlns:sodipodi="http://sodipodi.sourceforge.net/DTD/sodipodi-0.dtd"
   xmlns:inkscape="http://www.inkscape.org/namespaces/inkscape"
   width="32"
   height="32"
   viewBox="0 0 8.4666665 8.4666669"
   version="1.1"
   id="svg8"
   inkscape:version="1.0.1 (3bc2e813f5, 2020-09-07)"
   sodipodi:docname="memeIcon.svg">
  <defs
     id="defs2" />
  <sodipodi:namedview
     id="base"
     pagecolor="#ffffff"
     bordercolor="#666666"
     borderopacity="1.0"
     inkscape:pageopacity="0.0"
     inkscape:pageshadow="2"
     inkscape:zoom="11.490485"
     inkscape:cx="28.493897"
     inkscape:cy="19.643277"
     inkscape:document-units="px"
     inkscape:current-layer="layer1"
     inkscape:document-rotation="0"
     showgrid="true"
     units="px"
     inkscape:window-width="1362"
     inkscape:window-height="711"
     inkscape:window-x="0"
     inkscape:window-y="0"
     inkscape:window-maximized="0">
    <inkscape:grid
       type="xygrid"
       id="grid10" />
  </sodipodi:namedview>
  <metadata
     id="metadata5">
    <rdf:RDF>
      <cc:Work
         rdf:about="">
        <dc:format>image/svg+xml</dc:format>
        <dc:type
           rdf:resource="http://purl.org/dc/dcmitype/StillImage" />
        <dc:title></dc:title>
      </cc:Work>
    </rdf:RDF>
  </metadata>
  <g
     inkscape:label="Layer 1"
     inkscape:groupmode="layer"
     id="layer1">
    <circle
       style="opacity:1;fill:#ffffff;stroke-width:3.14886;stroke-linecap:round;stroke-linejoin:round;fill-opacity:1"
       id="path28"
       cx="4.1095786"
       cy="4.4657016"
       r="3.9990485" />
    <path
       style="fill:#000000;stroke-width:0.0330729"
       d="M 2.5104124,7.1621344 C 2.5000352,7.1453436 2.4469633,7.1218142 2.3924748,7.1098465 2.3274754,7.0955702 2.228908,7.015078 2.1058612,6.8757914 2.0027122,6.7590291 1.9070258,6.663496 1.8932248,6.663496 c -0.013801,0 0.00372,0.1039912 0.038946,0.2310917 0.074329,0.268224 0.073941,0.2650021 0.03189,0.2650021 -0.017682,0 -0.055979,-0.085576 -0.085105,-0.1901693 C 1.7617911,6.5486688 1.6583346,6.2683034 1.5672287,6.1246443 1.4039932,5.8672487 1.358351,5.525787 1.3437162,4.4524858 1.3333286,3.6906662 1.339043,3.517471 1.3741819,3.5291132 c 0.030244,0.01002 0.046307,0.1030463 0.053412,0.3093174 l 0.01016,0.2949872 0.097205,-0.2480469 c 0.1099488,-0.2805652 0.1264045,-0.3797334 0.046325,-0.2791727 -0.047963,0.06023 -0.050305,0.056021 -0.037893,-0.068093 0.011607,-0.1160591 0.1012531,-0.5047408 0.1487456,-0.6449219 0.010561,-0.031171 0.024096,-0.014017 0.036417,0.046154 0.019609,0.095763 0.019609,0.095763 0.2428362,-0.1537575 C 2.0941646,2.6483433 2.3264733,2.377672 2.4876312,2.1840878 2.852238,1.7461193 2.9819694,1.647986 3.277934,1.5862756 c 0.1251237,-0.026089 0.2934793,-0.07637 0.3741236,-0.1117354 0.1660172,-0.072805 0.847836,-0.2021134 1.062847,-0.2015718 0.1700345,4.283e-4 0.4239763,0.073252 0.56731,0.1626887 0.2467269,0.1539515 0.9948085,1.0017306 1.0436255,1.1827101 0.018691,0.069293 0.056217,0.2078436 0.083392,0.3078891 0.027174,0.1000456 0.1254079,0.3009636 0.2182972,0.4464844 0.3839428,0.6014885 0.4152139,0.7362707 0.384467,1.6570954 -0.020136,0.6030489 -0.018099,0.6345482 0.044709,0.691389 0.1259218,0.113958 0.09041,0.318525 -0.157436,0.9069183 C 6.7413054,7.0031545 6.6602294,7.15834 6.6220001,7.1588579 6.5740467,7.1595061 6.5768281,7.1289156 6.6467403,6.8867382 6.6900625,6.7366698 6.7766074,6.5157775 6.839062,6.3958663 L 6.9526162,6.1778464 6.9339009,5.4863611 C 6.9134651,4.7313196 6.9329517,4.8340289 6.6113086,3.7861522 6.4306243,3.1975052 6.4097008,3.1516738 6.191953,2.8675777 6.1034869,2.7521556 6.0315758,2.6251226 6.0321506,2.5852821 c 0.00101,-0.06973 0.00379,-0.069114 0.074414,0.016503 0.040353,0.048917 0.1000045,0.1233311 0.1325595,0.1653646 0.05919,0.076424 0.05919,0.076424 0.037502,-0.00626 C 6.2479504,2.6515678 6.1051445,2.4632355 6.0509244,2.4632355 5.998443,2.4632355 5.7796511,2.1022073 5.7498187,1.9663812 5.7261166,1.8584667 5.5770305,1.7240744 5.2430298,1.5095405 4.960049,1.3277777 4.8174442,1.3099594 4.3609232,1.3993223 4.160832,1.4384896 3.922707,1.4797471 3.8317565,1.4910057 3.7347636,1.5030122 3.6026189,1.5516465 3.5121498,1.6086332 3.4273166,1.6620698 3.3008127,1.7146043 3.23103,1.7253766 3.0480721,1.7536195 2.9458534,1.8139237 2.8385451,1.956924 2.7095006,2.1288903 1.9588508,2.9899036 1.8514745,3.0891178 c -0.063925,0.059065 -0.086775,0.1127874 -0.086775,0.2040087 0,0.068106 -0.051509,0.2881159 -0.1144648,0.4889102 -0.09516,0.3035097 -0.1180866,0.436436 -0.1359392,0.7881788 -0.018053,0.355684 -0.012446,0.4468115 0.03519,0.5719263 0.031165,0.081856 0.068775,0.238125 0.083578,0.3472656 0.014802,0.1091407 0.080091,0.3472657 0.1450871,0.5291667 0.064996,0.1819011 0.1183239,0.3639364 0.1185074,0.4045235 4.65e-4,0.102871 0.4046761,0.5230386 0.6201792,0.6446609 0.095647,0.05398 0.1739043,0.1041662 0.1739043,0.1115249 0,0.027564 -0.1622294,0.012136 -0.1803291,-0.017149 z M 1.6487956,5.8815322 C 1.4604387,5.1743099 1.3893134,5.0417215 1.4974024,5.5993127 c 0.062458,0.3221967 0.1825231,0.6638876 0.2200827,0.626328 0.00997,-0.00997 -0.020939,-0.1648202 -0.06869,-0.3441085 z M 1.4629032,4.4704633 c -0.00373,-0.2441227 -0.00676,-0.2561888 -0.030621,-0.1220715 -0.038561,0.2167116 -0.037658,0.437729 0.00169,0.4134115 0.018274,-0.011294 0.03122,-0.1416583 0.028933,-0.29134 z M 6.8424817,3.9593411 C 6.7764358,3.7660995 6.6469774,3.5276145 6.6766558,3.6538605 6.7228239,3.8502513 6.8732151,4.2275654 6.8841003,4.1743151 6.8906574,4.1422383 6.8719292,4.0455 6.8424817,3.9593411 Z M 4.3696557,6.23369 C 4.2166685,6.1876247 4.0533777,6.0702099 3.9822517,5.9551257 3.9138319,5.8444201 3.8901141,5.6240999 3.9430916,5.591358 c 0.040765,-0.025194 0.1275033,0.080239 0.1542813,0.187535 0.071415,0.2861489 0.678663,0.4151273 0.9846688,0.2091419 0.1057044,-0.071154 0.1057044,-0.071154 0.1150558,-0.4419871 0.00863,-0.3422974 0.01431,-0.3708331 0.073784,-0.3708331 0.088286,0 0.1162701,0.119813 0.1107456,0.4741532 -0.00443,0.2838702 -0.00775,0.2956028 -0.1157552,0.4090869 C 5.2047129,6.1227138 5.1067819,6.195839 5.0482485,6.2209552 4.9326279,6.2705672 4.5179716,6.2783482 4.3696557,6.23369 Z M 2.5915221,4.6945445 C 2.3883775,4.6315992 2.22772,4.4800997 2.22772,4.3514805 2.22772,4.2965585 2.197954,4.1761058 2.161574,4.0838085 2.0456974,3.7898271 2.091481,3.5568485 2.3075986,3.3407307 2.5391249,3.1092044 2.935325,3.0230908 3.2860532,3.1280647 3.498714,3.1917147 3.782147,3.479656 3.782147,3.6320495 3.782147,3.8104534 3.5989622,4.128252 3.3334194,4.4105256 3.1339352,4.6225788 3.0608682,4.6780034 2.9410166,4.7081825 2.766239,4.7521919 2.7792016,4.752698 2.5915221,4.6945445 Z M 2.9764717,4.592034 C 3.1296461,4.519348 3.5004114,4.1081402 3.6048447,3.8951191 3.6722999,3.7575254 3.6847055,3.6961119 3.6666419,3.5891946 3.649444,3.4874013 3.628924,3.455423 3.5808025,3.455423 c -0.077651,0 -0.079724,0.026185 -0.00832,0.1050856 0.030205,0.033376 0.044913,0.07069 0.032684,0.08292 C 3.5929365,3.6556576 3.4900885,3.5676376 3.3766145,3.447829 3.2631405,3.32802 3.1377902,3.2137432 3.0980583,3.1938806 2.9097192,3.0997269 2.6034063,3.18443 2.415055,3.382748 L 2.32127,3.481495 2.4401133,3.520717 c 0.1267411,0.041828 0.1844814,0.1157948 0.1844814,0.2363243 0,0.095103 -0.1232534,0.2273964 -0.2124708,0.2280545 -0.1296689,9.565e-4 -0.1584493,0.0452 -0.1342736,0.2064153 0.029512,0.1967981 0.1137734,0.3301143 0.2515438,0.3979849 0.1425294,0.070215 0.3025438,0.071123 0.4470773,0.00254 z M 5.220819,4.0373167 C 5.1298685,4.0148402 5.0087895,3.9719565 4.9517543,3.9420196 4.7352094,3.8283581 4.4436054,3.4115121 4.4436054,3.2156237 4.4436054,3.0694685 4.4969104,2.975777 4.722685,2.7250989 4.8421493,2.5924572 4.957297,2.4358022 4.9785688,2.3769766 5.0086099,2.2938987 5.0417047,2.2654321 5.1268099,2.2494663 5.3936614,2.1994047 5.6353989,2.3571958 5.9787782,2.8055774 6.2058208,3.1020476 6.2999232,3.3121435 6.3042365,3.5322058 6.3083875,3.7439886 6.2368078,3.8886491 6.0726788,4.0001777 5.9637022,4.0742291 5.917337,4.0834863 5.6678944,4.0809958 5.5129534,4.0794488 5.3117695,4.0597932 5.220819,4.0373167 Z M 5.9828293,3.9652039 C 6.1409621,3.8901649 6.2053621,3.7743904 6.2035116,3.568472 6.2018778,3.386619 6.1221896,3.1667648 5.9912668,2.9829008 L 5.9159231,2.8770901 5.8989415,2.9760873 C 5.8836449,3.0652623 5.8683398,3.0760783 5.7446824,3.0851017 5.6691799,3.0906111 5.5539093,3.072767 5.4885261,3.0454482 5.378682,2.9995524 5.3696471,2.9851642 5.3696471,2.856134 c 0,-0.1524056 0.070786,-0.2606068 0.1704906,-0.2606068 0.1395366,0 -0.00453,-0.2075099 -0.1704906,-0.2455679 C 5.3021093,2.3344714 5.2390505,2.3718836 5.0253736,2.5542133 4.6632205,2.8632375 4.5697548,2.986993 4.5517929,3.1812694 4.5387318,3.3225375 4.5514953,3.3617062 4.6696661,3.5434489 4.818525,3.772358 5.0075572,3.9040979 5.2831122,3.9709708 c 0.2444138,0.059315 0.5681897,0.056647 0.6997171,-0.00577 z"
       id="path26" />
  </g>
</svg>
