<?xml version="1.0" encoding="UTF-8" standalone="no"?>
<svg
   xmlns:svg="http://www.w3.org/2000/svg"
   xmlns="http://www.w3.org/2000/svg"
   xmlns:sodipodi="http://sodipodi.sourceforge.net/DTD/sodipodi-0.dtd"
   xmlns:inkscape="http://www.inkscape.org/namespaces/inkscape"
   width="64"
   height="64"
   viewBox="0 0 16.933333 16.933334"
   sodipodi:docname="recipe.svg">
  <defs
     id="defs2" />
    <path fill="#c65e48" stroke="#ebb5a9" stroke-width="0.2" d="M 1.9814812,6.7148633 C 5.6336723,4.8691825 9.7870075,4.4227486 14.861581,6.5485134 14.885151,10.127346 2.3883075,9.8869287 1.9814812,6.7148633 Z" id="path853" sodipodi:nodetypes="ccc" />
    <path stroke="#5c4433" stroke-linecap="round" stroke-width="2.16" d="M 9.0357496,9.2166227 13.692986,2.7475438" id="path851" />
    <path id="path843" fill="#eba9c2" d="M 14.861581,6.5485134 C 11.559581,9.2585587 5.0293192,8.8008462 1.9814812,6.7148635 1.7111981,7.378012 1.5635066,8.094345 1.5630852,8.8415702 v 0.00228 C 1.5626207,12.264529 4.6485553,15.037827 8.4562578,15.038573 12.26396,15.039319 15.351598,12.267331 15.35279,8.846647 15.353074,8.0344961 15.177654,7.2593393 14.861581,6.5485497 Z" sodipodi:nodetypes="ccsssscc" />
    <path sodipodi:type="star" fill="#fedf6e" id="path891" sodipodi:sides="4" sodipodi:cx="4.6546324" sodipodi:cy="3.7069942" sodipodi:r1="3.5758057" sodipodi:r2="0.80455625" sodipodi:arg1="-0.47335066" sodipodi:arg2="0.3120475" inkscape:flatsided="false" inkscape:rounded="-5.2041704e-17" inkscape:randomized="0" d="M 7.8372634,2.0768879 5.4203344,3.9539994 6.284739,6.8896252 4.4076274,4.4726961 1.4720017,5.3371007 3.8889308,3.4599892 3.0245262,0.52436342 4.9016377,2.9412925 Z" inkscape:transform-center-x="-0.089801296" inkscape:transform-center-y="0.81505336" />
</svg>
