<svg width="92" height="103" viewBox="0 0 92 103" fill="none" xmlns="http://www.w3.org/2000/svg">
<path d="M81.9871 0H9.8481C4.821 0 0.799316 4.10028 0.799316 9.22563V93.2813C0.799316 98.4067 4.821 102.507 9.8481 102.507H81.9871C87.0142 102.507 91.0359 98.4067 91.0359 93.2813V9.22563C91.0359 4.10028 87.0142 0 81.9871 0ZM86.0088 93.2813C86.0088 95.5877 84.2493 97.3816 81.9871 97.3816H9.8481C7.58591 97.3816 5.82642 95.5877 5.82642 93.2813V9.22563C5.82642 6.91922 7.58591 5.12535 9.8481 5.12535H81.9871C84.2493 5.12535 86.0088 6.91922 86.0088 9.22563V93.2813ZM23.4213 87.1309L34.7323 76.8802L23.4213 66.6295V87.1309ZM64.1409 45.6156C62.13 43.5655 58.3597 41.0028 52.0758 41.0028C45.2892 41.0028 38.2513 42.7967 33.2242 44.5905V15.376H23.1699V59.7103L30.2079 56.3788C30.2079 56.3788 41.7702 50.9972 51.8245 50.9972C56.8516 50.9972 58.1083 53.8162 58.1083 56.3788V87.1309H68.1626V56.3788C68.4139 55.61 68.4139 49.9721 64.1409 45.6156ZM50.819 32.0334H60.8732C65.3976 26.6518 67.6598 21.2702 68.4139 15.376H58.3597C57.3543 21.2702 54.8407 26.6518 50.819 32.0334Z" fill="#430098"/>
</svg>
