<svg width="94" height="105" viewBox="0 0 94 105" fill="none" xmlns="http://www.w3.org/2000/svg">
<path d="M90.3789 51.6312C90.3789 45.3177 86.1362 40.0058 80.4398 38.4882L93.1974 0H29.9728L42.7601 38.6096C37.2417 40.2486 33.177 45.4694 33.177 51.6615C33.177 56.2146 35.4022 60.2516 38.7845 62.7405C37.4494 64.6832 35.9066 66.474 34.1561 68.1738C30.8629 71.3306 27.2136 73.7588 23.2676 75.3676C19.7073 72.9089 18.1645 68.5684 19.559 64.6832C24.9884 62.9834 28.9344 57.7929 28.9344 51.6919C28.9344 44.1946 22.9709 38.1239 15.6723 38.1239C8.34408 38.1239 2.38061 44.2249 2.38061 51.7222C2.38061 55.4254 3.86406 58.8249 6.23759 61.2532C6.0299 61.6782 5.82222 62.1031 5.61454 62.5584C3.62671 66.7472 1.37187 71.4823 0.511466 76.7942C-1.20934 87.4179 1.60922 95.9472 8.40342 100.773C12.2307 103.475 16.4437 104.841 20.9831 104.841C28.786 104.841 36.7077 100.834 44.3623 96.9489C49.8214 94.1867 55.4585 91.3031 61.0066 89.9069C63.0537 89.3909 65.1899 89.0873 67.4447 88.7534C72.0138 88.0857 76.7311 87.3875 80.9738 84.8682C85.9285 81.9239 89.3108 77.0067 90.2899 71.3609C91.0316 67.0204 90.2899 62.6495 88.3911 58.8249C89.6668 56.7306 90.3789 54.2719 90.3789 51.6312ZM84.5934 51.6312C84.5934 55.8503 81.2408 59.2803 77.1168 59.2803C72.9929 59.2803 69.6403 55.8503 69.6403 51.6312C69.6403 50.2653 69.9963 48.9601 70.6193 47.837C70.8567 47.4121 71.1534 46.9871 71.4501 46.6229C71.7468 46.2586 72.1028 45.9247 72.4885 45.6212L72.5181 45.5909C72.7555 45.4087 73.0225 45.2266 73.2895 45.0445C73.2895 45.0445 73.3192 45.0445 73.3192 45.0141C73.4379 44.9534 73.5566 44.8624 73.6752 44.8017C73.7049 44.8017 73.7346 44.7713 73.7642 44.7713C73.8829 44.7106 74.0313 44.6499 74.1796 44.5892C74.328 44.5285 74.4763 44.4678 74.595 44.4071C74.6246 44.4071 74.6543 44.3767 74.684 44.3767C74.8027 44.3464 74.9213 44.2857 75.04 44.2553C75.0697 44.2553 75.129 44.2249 75.1587 44.2249C75.307 44.1946 75.4257 44.1642 75.5741 44.1339H75.6037L76.0488 44.0428C76.0784 44.0428 76.1378 44.0428 76.1674 44.0125C76.2861 44.0125 76.4048 43.9821 76.5235 43.9821H76.6718C76.8202 43.9821 76.9685 43.9518 77.1465 43.9518H77.5322C77.6509 43.9518 77.7399 43.9518 77.8586 43.9821H77.9179C78.1553 44.0125 78.3926 44.0428 78.63 44.1035C82.0122 44.832 84.5934 47.9281 84.5934 51.6312ZM38.2504 6.07069H84.9198L74.2093 38.3971C73.7642 38.4881 73.3192 38.6399 72.8742 38.7917L61.6 15.2678L50.2961 38.6399C49.851 38.4882 49.3763 38.3971 48.9016 38.306L38.2504 6.07069ZM59.4638 48.9904C58.9001 46.1372 57.476 43.5875 55.4585 41.7056L61.6 29.0179L67.8008 41.9788C65.9613 43.8607 64.6262 46.2586 64.0921 48.9904H59.4638ZM44.5996 44.1946C44.748 44.1642 44.8666 44.1339 45.015 44.1035H45.104C45.2227 44.0732 45.3413 44.0732 45.46 44.0428H45.5787C45.6974 44.0428 45.7864 44.0125 45.905 44.0125H47.0621C47.1808 44.0125 47.2698 44.0428 47.3588 44.0428C47.4182 44.0428 47.4478 44.0428 47.5072 44.0732C47.6259 44.1035 47.7149 44.1035 47.8335 44.1339C47.8632 44.1339 47.8929 44.1339 47.9522 44.1642C48.1006 44.1946 48.2489 44.2249 48.3676 44.2553H48.3972C48.5159 44.2857 48.6346 44.316 48.7533 44.3767C48.7829 44.3767 48.8126 44.4071 48.8719 44.4071C48.961 44.4374 49.0796 44.4678 49.1686 44.5285C49.1983 44.5285 49.228 44.5588 49.2576 44.5588C49.3763 44.6195 49.495 44.6499 49.6137 44.7106H49.6433C49.7917 44.7713 49.9104 44.832 50.029 44.9231H50.0587C50.1774 44.9838 50.2961 45.0748 50.4147 45.1355C50.4444 45.1355 50.4444 45.1659 50.4741 45.1659C50.5928 45.2266 50.6818 45.3177 50.8004 45.3784L50.8301 45.4087C51.1861 45.6819 51.5125 45.9854 51.8388 46.289L51.8685 46.3193C52.1652 46.6532 52.4619 47.0175 52.6993 47.4121C53.4706 48.6262 53.9157 50.0528 53.9157 51.6008C53.9157 55.82 50.5631 59.2499 46.4391 59.2499C42.3151 59.2499 38.9625 55.82 38.9625 51.6008C38.9328 48.0495 41.336 45.0445 44.5996 44.1946ZM15.4053 43.9821C19.5293 43.9821 22.8819 47.4121 22.8819 51.6312C22.8819 55.8503 19.5293 59.2803 15.4053 59.2803C11.2813 59.2803 7.92872 55.8503 7.92872 51.6312C7.92872 47.4121 11.2813 43.9821 15.4053 43.9821ZM84.4154 70.2985C83.7627 74.1838 81.4188 77.5834 77.9772 79.617C74.7433 81.5293 70.7677 82.1364 66.5843 82.7435C64.2998 83.0773 61.8966 83.4416 59.5825 84.0183C53.4113 85.5663 47.4775 88.6017 41.7217 91.5156C34.3638 95.2491 27.4213 98.7701 20.9831 98.7701C17.6305 98.7701 14.6339 97.7988 11.7857 95.7651C5.25851 91.1514 5.58487 82.5006 6.35626 77.7655C7.06832 73.3339 9.05614 69.1755 10.955 65.1992C11.0736 64.9563 11.1626 64.7439 11.2813 64.501C11.934 64.7439 12.6164 64.926 13.3285 65.0474C12.2011 71.4823 15.4053 78.1297 21.6358 81.4079L22.7632 82.015L23.9797 81.5597C29.1717 79.6778 33.9781 76.6121 38.2208 72.5143C40.624 70.2075 42.6711 67.7185 44.3919 65.017C45.0743 65.1385 45.7567 65.1688 46.4391 65.1688C52.6102 65.1688 57.8023 60.8283 59.2858 55.0004H64.2702C65.7536 60.8586 70.9457 65.1688 77.1168 65.1688C79.5794 65.1688 81.8639 64.4707 83.822 63.2869C84.5934 65.5634 84.8308 67.931 84.4154 70.2985Z" fill="#99425B"/>
</svg>
