<svg width="158" height="29" viewBox="0 0 158 29" fill="none" xmlns="http://www.w3.org/2000/svg">
<path d="M21.228 0.344C23.412 0.344 25.044 0.908 26.124 2.036C27.204 3.14 27.744 4.94 27.744 7.436V20H24.612V7.58C24.612 4.532 23.304 3.008 20.688 3.008C18.816 3.008 17.472 3.548 16.656 4.628C15.864 5.708 15.468 7.28 15.468 9.344V20H12.336V7.58C12.336 4.532 11.016 3.008 8.376 3.008C6.432 3.008 5.088 3.608 4.344 4.808C3.6 6.008 3.228 7.736 3.228 9.992V20H0.06V0.704H2.616L3.084 3.332H3.264C3.864 2.324 4.668 1.58 5.676 1.1C6.708 0.595999 7.8 0.344 8.952 0.344C11.976 0.344 13.944 1.424 14.856 3.584H15.036C15.684 2.48 16.56 1.664 17.664 1.136C18.792 0.607999 19.98 0.344 21.228 0.344ZM47.7805 10.316C47.7805 13.508 46.9645 15.98 45.3325 17.732C43.7245 19.484 41.5405 20.36 38.7805 20.36C37.0765 20.36 35.5525 19.976 34.2085 19.208C32.8885 18.416 31.8445 17.276 31.0765 15.788C30.3085 14.276 29.9245 12.452 29.9245 10.316C29.9245 7.124 30.7285 4.664 32.3365 2.936C33.9445 1.208 36.1285 0.344 38.8885 0.344C40.6405 0.344 42.1765 0.74 43.4965 1.532C44.8405 2.3 45.8845 3.428 46.6285 4.916C47.3965 6.38 47.7805 8.18 47.7805 10.316ZM33.2005 10.316C33.2005 12.596 33.6445 14.408 34.5325 15.752C35.4445 17.072 36.8845 17.732 38.8525 17.732C40.7965 17.732 42.2245 17.072 43.1365 15.752C44.0485 14.408 44.5045 12.596 44.5045 10.316C44.5045 8.036 44.0485 6.248 43.1365 4.952C42.2245 3.656 40.7845 3.008 38.8165 3.008C36.8485 3.008 35.4205 3.656 34.5325 4.952C33.6445 6.248 33.2005 8.036 33.2005 10.316ZM59.3894 0.344C61.6934 0.344 63.4334 0.908 64.6094 2.036C65.7854 3.14 66.3734 4.94 66.3734 7.436V20H63.2414V7.652C63.2414 4.556 61.8014 3.008 58.9214 3.008C56.7854 3.008 55.3094 3.608 54.4934 4.808C53.6774 6.008 53.2694 7.736 53.2694 9.992V20H50.1014V0.704H52.6574L53.1254 3.332H53.3054C53.9294 2.324 54.7934 1.58 55.8974 1.1C57.0014 0.595999 58.1654 0.344 59.3894 0.344ZM76.4953 0.344C77.7673 0.344 78.9073 0.584 79.9153 1.064C80.9473 1.544 81.8233 2.276 82.5433 3.26H82.7233L83.1553 0.704H85.6753V20.324C85.6753 23.084 84.9673 25.16 83.5513 26.552C82.1593 27.944 79.9873 28.64 77.0353 28.64C74.2033 28.64 71.8873 28.232 70.0873 27.416V24.5C71.9833 25.508 74.3593 26.012 77.2153 26.012C78.8713 26.012 80.1673 25.52 81.1033 24.536C82.0633 23.576 82.5433 22.256 82.5433 20.576V19.82C82.5433 19.532 82.5553 19.124 82.5793 18.596C82.6033 18.044 82.6273 17.66 82.6513 17.444H82.5073C81.2113 19.388 79.2193 20.36 76.5313 20.36C74.0353 20.36 72.0793 19.484 70.6633 17.732C69.2713 15.98 68.5753 13.532 68.5753 10.388C68.5753 7.316 69.2713 4.88 70.6633 3.08C72.0793 1.256 74.0233 0.344 76.4953 0.344ZM76.9273 3.008C75.3193 3.008 74.0713 3.656 73.1833 4.952C72.2953 6.224 71.8513 8.048 71.8513 10.424C71.8513 12.8 72.2833 14.624 73.1473 15.896C74.0353 17.144 75.3193 17.768 76.9993 17.768C78.9433 17.768 80.3593 17.252 81.2473 16.22C82.1353 15.164 82.5793 13.472 82.5793 11.144V10.388C82.5793 7.748 82.1233 5.864 81.2113 4.736C80.2993 3.584 78.8713 3.008 76.9273 3.008ZM105.88 10.316C105.88 13.508 105.064 15.98 103.432 17.732C101.824 19.484 99.6397 20.36 96.8797 20.36C95.1757 20.36 93.6517 19.976 92.3077 19.208C90.9877 18.416 89.9437 17.276 89.1757 15.788C88.4077 14.276 88.0237 12.452 88.0237 10.316C88.0237 7.124 88.8277 4.664 90.4357 2.936C92.0437 1.208 94.2277 0.344 96.9877 0.344C98.7397 0.344 100.276 0.74 101.596 1.532C102.94 2.3 103.984 3.428 104.728 4.916C105.496 6.38 105.88 8.18 105.88 10.316ZM91.2997 10.316C91.2997 12.596 91.7437 14.408 92.6317 15.752C93.5437 17.072 94.9837 17.732 96.9517 17.732C98.8957 17.732 100.324 17.072 101.236 15.752C102.148 14.408 102.604 12.596 102.604 10.316C102.604 8.036 102.148 6.248 101.236 4.952C100.324 3.656 98.8837 3.008 96.9157 3.008C94.9477 3.008 93.5197 3.656 92.6317 4.952C91.7437 6.248 91.2997 8.036 91.2997 10.316ZM124.977 10.316C124.977 13.508 124.161 15.98 122.529 17.732C120.921 19.484 118.737 20.36 115.977 20.36C114.273 20.36 112.749 19.976 111.405 19.208C110.085 18.416 109.041 17.276 108.273 15.788C107.505 14.276 107.121 12.452 107.121 10.316C107.121 7.124 107.925 4.664 109.533 2.936C111.141 1.208 113.325 0.344 116.085 0.344C117.837 0.344 119.373 0.74 120.693 1.532C122.037 2.3 123.081 3.428 123.825 4.916C124.593 6.38 124.977 8.18 124.977 10.316ZM110.397 10.316C110.397 12.596 110.841 14.408 111.729 15.752C112.641 17.072 114.081 17.732 116.049 17.732C117.993 17.732 119.421 17.072 120.333 15.752C121.245 14.408 121.701 12.596 121.701 10.316C121.701 8.036 121.245 6.248 120.333 4.952C119.421 3.656 117.981 3.008 116.013 3.008C114.045 3.008 112.617 3.656 111.729 4.952C110.841 6.248 110.397 8.036 110.397 10.316ZM139.862 14.672C139.862 16.544 139.166 17.96 137.774 18.92C136.382 19.88 134.51 20.36 132.158 20.36C130.814 20.36 129.65 20.252 128.666 20.036C127.706 19.82 126.854 19.52 126.11 19.136V16.256C126.878 16.64 127.802 17 128.882 17.336C129.986 17.648 131.102 17.804 132.23 17.804C133.838 17.804 135.002 17.552 135.722 17.048C136.442 16.52 136.802 15.824 136.802 14.96C136.802 14.48 136.67 14.048 136.406 13.664C136.142 13.28 135.662 12.896 134.966 12.512C134.294 12.128 133.322 11.696 132.05 11.216C130.802 10.736 129.734 10.256 128.846 9.776C127.958 9.296 127.274 8.72 126.794 8.048C126.314 7.376 126.074 6.512 126.074 5.456C126.074 3.824 126.734 2.564 128.054 1.676C129.398 0.788 131.15 0.344 133.31 0.344C134.486 0.344 135.578 0.464 136.586 0.704C137.618 0.92 138.578 1.232 139.466 1.64L138.386 4.16C137.57 3.824 136.718 3.536 135.83 3.296C134.942 3.056 134.03 2.936 133.094 2.936C131.798 2.936 130.802 3.152 130.106 3.584C129.434 3.992 129.098 4.556 129.098 5.276C129.098 5.804 129.254 6.26 129.566 6.644C129.878 7.004 130.394 7.364 131.114 7.724C131.858 8.06 132.842 8.468 134.066 8.948C135.29 9.404 136.334 9.872 137.198 10.352C138.062 10.832 138.722 11.42 139.178 12.116C139.634 12.788 139.862 13.64 139.862 14.672ZM149.276 0.344C150.932 0.344 152.348 0.704 153.524 1.424C154.724 2.144 155.636 3.164 156.26 4.484C156.908 5.78 157.232 7.304 157.232 9.056V10.964H144.02C144.068 13.148 144.62 14.816 145.676 15.968C146.756 17.096 148.256 17.66 150.176 17.66C151.4 17.66 152.48 17.552 153.416 17.336C154.376 17.096 155.36 16.76 156.368 16.328V19.1C155.384 19.532 154.412 19.844 153.452 20.036C152.492 20.252 151.352 20.36 150.032 20.36C148.208 20.36 146.588 19.988 145.172 19.244C143.78 18.5 142.688 17.396 141.896 15.932C141.128 14.444 140.744 12.632 140.744 10.496C140.744 8.384 141.092 6.572 141.788 5.06C142.508 3.548 143.504 2.384 144.776 1.568C146.072 0.752 147.572 0.344 149.276 0.344ZM149.24 2.936C147.728 2.936 146.528 3.428 145.64 4.412C144.776 5.372 144.26 6.716 144.092 8.444H153.92C153.896 6.812 153.512 5.492 152.768 4.484C152.024 3.452 150.848 2.936 149.24 2.936Z" fill="#721615"/>
</svg>
