<svg width="92" height="106" viewBox="0 0 92 106" fill="none" xmlns="http://www.w3.org/2000/svg">
<path d="M4.87921 97.0286H87.0605C89.2849 97.0286 91.0881 98.867 91.0881 101.135C91.0881 103.403 89.2849 105.241 87.0605 105.241H4.87921C2.65481 105.241 0.851562 103.403 0.851562 101.135C0.851562 98.867 2.65481 97.0286 4.87921 97.0286Z" fill="#696969"/>
<path d="M5.59558 88.8003H22.1194V92.688H5.59558V88.8003Z" fill="#009FE3"/>
<path d="M27.2036 88.8003H43.7273V92.688H27.2036V88.8003Z" fill="#C7D302"/>
<path d="M48.5255 88.8003H65.0493V92.688H48.5255V88.8003Z" fill="#F07E16"/>
<path d="M69.7574 88.8003H86.2812V92.688H69.7574V88.8003Z" fill="#DF2815"/>
<path d="M69.7574 0H86.2812V28.4772H69.7574V0Z" fill="#DF2815"/>
<path d="M48.5255 0H65.08V46.2634H48.5255V0Z" fill="#F07E16"/>
<path d="M27.2036 0H43.7263V69.2979H27.2036V0Z" fill="#C7D302"/>
<path d="M5.59558 0H22.1194V84.4598H5.59558V0Z" fill="#009FE3"/>
</svg>
