<svg width="93" height="94" viewBox="0 0 93 94" fill="none" xmlns="http://www.w3.org/2000/svg">
<path d="M46.3384 90C69.6315 90 88.5142 70.7482 88.5142 47C88.5142 23.2518 69.6315 4 46.3384 4C23.0454 4 4.1626 23.2518 4.1626 47C4.1626 70.7482 23.0454 90 46.3384 90Z" stroke="#010101" stroke-width="8"/>
<path d="M35.1052 44.6199C45.2152 36.1987 55.1047 27.4856 65.4349 19.3114C60.0164 27.8001 54.444 36.1761 49.0255 44.6644C44.378 44.6871 39.7309 44.6871 35.1052 44.6195V44.6199ZM43.6514 49.313C48.3207 49.313 52.9682 49.313 57.6157 49.3805C47.4398 57.7564 37.5943 66.5367 27.242 74.6886C32.6605 66.1999 38.2329 57.8017 43.6514 49.313Z" fill="#010101"/>
</svg>
