<svg width="361" height="361" viewBox="0 0 261 361" fill="none" xmlns="http://www.w3.org/2000/svg">
<path d="M140.184 340.907C214.045 340.907 273.922 305.961 273.922 262.852C273.922 219.744 214.045 184.798 140.184 184.798C66.3228 184.798 6.44641 219.744 6.44641 262.852C6.44641 305.961 66.3228 340.907 140.184 340.907Z" fill="#F0F0F0"/>
<path d="M135.014 234.881C108.011 250.491 108.011 275.804 135.014 291.399C162.017 306.994 205.871 307.002 232.903 291.399C259.934 275.797 259.934 250.491 232.903 234.881C205.871 219.271 162.075 219.279 135.014 234.881Z" fill="#E0E0E0"/>
<path d="M27.436 255.263C14.7721 262.57 14.7721 274.425 27.436 281.739C40.0999 289.053 60.648 289.053 73.3047 281.739C85.9613 274.425 85.9686 262.57 73.3047 255.263C60.6408 247.956 40.0782 247.949 27.436 255.263Z" fill="#E0E0E0"/>
<path d="M269.964 59.3668L265.85 56.9922C265.872 56.8243 265.882 56.6553 265.883 56.4861V55.2988C265.822 54.1457 265.489 53.0234 264.911 52.0234C264.334 51.0233 263.529 50.1737 262.561 49.5438C262.273 49.3513 261.95 49.2182 261.61 49.1525C261.27 49.0867 260.921 49.0896 260.582 49.161C260.284 46.1505 258.188 42.7443 255.651 41.2844C252.907 39.6948 250.681 40.9795 250.681 44.1522V45.9299C250.695 46.7961 250.837 47.6554 251.103 48.4798L247.69 46.5333C246.672 45.9494 245.848 46.423 245.848 47.5974C245.885 48.2319 246.071 48.8488 246.389 49.3986C246.708 49.9485 247.152 50.416 247.684 50.7636L269.951 63.6166C270.97 64.207 271.794 63.7334 271.794 62.559C271.762 61.9204 271.58 61.2982 271.262 60.7435C270.944 60.1887 270.499 59.717 269.964 59.3668V59.3668Z" fill="#EBEBEB"/>
<path d="M274.473 29.5409L276.744 30.4103V25.421C276.744 21.4567 279.897 20.5094 283.33 22.4883C286.755 24.4672 289.532 29.2814 289.532 33.2391V33.9658C290.014 33.8165 290.524 33.7787 291.023 33.8551C291.522 33.9315 291.997 34.1202 292.413 34.407V34.407C293.713 35.2559 294.795 36.3989 295.572 37.7436C296.349 39.0883 296.798 40.5969 296.883 42.1474V42.4588L300.043 44.2884C300.899 44.846 301.612 45.5979 302.123 46.4829C302.633 47.368 302.928 48.3612 302.982 49.3816C302.982 51.2567 301.684 52.0158 300.043 51.0815L274.473 36.334C273.616 35.7758 272.903 35.0229 272.392 34.1366C271.881 33.2503 271.587 32.2559 271.534 31.2343C271.534 29.3592 272.851 28.6001 274.473 29.5409Z" fill="#EBEBEB"/>
<path d="M59.8782 59.3668L63.9852 56.9922C63.9641 56.8243 63.9532 56.6553 63.9528 56.4861V55.2988C64.0142 54.1457 64.347 53.0234 64.9243 52.0234C65.5016 51.0233 66.3069 50.1737 67.2747 49.5438C67.8472 49.1635 68.5472 49.0258 69.2211 49.161C69.5196 46.1505 71.6088 42.7443 74.1521 41.2844C76.8966 39.6948 79.1155 40.9795 79.1155 44.1522V45.9299C79.1044 46.7958 78.9645 47.6551 78.7003 48.4798L82.1131 46.5333C83.1252 45.9494 83.9557 46.423 83.9557 47.5974C83.92 48.2366 83.7347 48.8585 83.4146 49.4129C83.0945 49.9674 82.6487 50.4389 82.1131 50.7895L59.8782 63.6166C58.8596 64.207 58.0356 63.7334 58.0356 62.559C58.0687 61.9192 58.253 61.2963 58.5733 60.7415C58.8936 60.1866 59.3408 59.7155 59.8782 59.3668V59.3668Z" fill="#EBEBEB"/>
<path d="M55.3625 29.5409L53.0981 30.4103V25.421C53.0981 21.4567 49.9449 20.5094 46.5127 22.4883C43.0869 24.4672 40.31 29.2814 40.31 33.2391V33.9658C39.8278 33.8165 39.3179 33.7787 38.8189 33.8551C38.3199 33.9315 37.8447 34.1202 37.4293 34.407V34.407C36.1279 35.2548 35.0449 36.3975 34.2682 37.7424C33.4915 39.0874 33.0429 40.5965 32.959 42.1474V42.4588L29.7992 44.2884C28.9429 44.846 28.2303 45.5979 27.7195 46.4829C27.2088 47.368 26.9143 48.3612 26.8601 49.3816C26.8601 51.2567 28.1577 52.0158 29.7992 51.0815L55.3625 36.321C56.2209 35.7636 56.9353 35.011 57.4472 34.1246C57.9592 33.2383 58.2542 32.2435 58.3081 31.2213C58.3081 29.3592 56.991 28.6001 55.3625 29.5409Z" fill="#EBEBEB"/>
<path d="M32.0207 260.541L33.7029 257.545C34.6692 250.985 34.2561 244.297 32.49 237.906C29.0966 226.282 22.909 222.932 19.3062 224.91C16.6348 226.354 16.3244 229.762 22.0787 235.74C25.4866 239.3 31.0026 250.014 32.0207 260.541Z" fill="#92B1E3"/>
<path opacity="0.15" d="M32.0207 260.541L33.7029 257.545C34.6692 250.985 34.2561 244.297 32.49 237.906C29.0966 226.282 22.909 222.932 19.3062 224.91C16.6348 226.354 16.3244 229.762 22.0787 235.74C25.4866 239.3 31.0026 250.014 32.0207 260.541Z" fill="black"/>
<path d="M32.028 252.96C31.9936 252.961 31.9593 252.955 31.9273 252.942C31.8954 252.929 31.8663 252.91 31.842 252.886C31.8176 252.862 31.7985 252.833 31.7858 252.801C31.7731 252.769 31.7671 252.734 31.7681 252.7C32.1074 241.928 26.6058 230.751 21.3135 226.571C21.2897 226.548 21.2708 226.52 21.2578 226.49C21.2449 226.46 21.2382 226.427 21.2382 226.394C21.2382 226.361 21.2449 226.328 21.2578 226.298C21.2708 226.267 21.2897 226.24 21.3135 226.217C21.3548 226.165 21.4152 226.13 21.4814 226.122C21.5477 226.114 21.6145 226.133 21.6673 226.174C27.0534 230.426 32.6561 241.783 32.3096 252.714C32.3088 252.75 32.3007 252.784 32.2858 252.816C32.2709 252.848 32.2495 252.876 32.223 252.899C32.1965 252.922 32.1655 252.94 32.1319 252.95C32.0983 252.961 32.0629 252.964 32.028 252.96V252.96Z" fill="white"/>
<path d="M31.3637 262.808C31.176 263.313 30.9305 263.256 30.4251 263.097C30.0497 262.981 29.7031 262.793 29.3204 262.685C28.5838 262.46 27.8339 262.282 27.075 262.151C25.696 261.913 24.2953 262.021 22.9307 261.783C22.3685 261.712 21.8378 261.483 21.4007 261.123C20.9635 260.763 20.6378 260.285 20.4615 259.747C20.2666 258.931 20.6637 258.303 20.938 257.371C21.2557 256.303 20.5554 255.523 19.7251 255.018C18.8948 254.512 17.3569 254.252 16.375 253.898C15.3931 253.545 13.7902 252.75 13.422 251.769C12.5195 249.364 15.1259 248.787 14.9093 247.011C14.7649 245.827 13.7108 244.975 13.2632 243.877C12.8155 242.78 12.5412 241.61 13.2632 240.715C13.9852 239.819 15.3642 239.682 16.4833 239.805C17.8755 240.02 19.2108 240.511 20.411 241.249C21.855 242.036 22.7863 242.585 24.1942 241.711C26.1653 240.491 28.5262 241.841 28.945 244.866C29.1038 246.058 28.8945 247.321 29.667 248.245C30.4395 249.169 31.8835 248.801 32.7933 249.386C33.404 249.822 33.9078 250.391 34.2667 251.05C34.6257 251.709 34.8304 252.441 34.8654 253.191C35.1181 255.783 34.4322 259.342 32.9232 261.487C32.7252 261.863 32.4828 262.215 32.2012 262.534C31.9413 262.736 31.537 262.36 31.3637 262.808Z" fill="#92B1E3"/>
<path d="M32.0207 263.263C32.0903 263.257 32.1549 263.225 32.2008 263.172C32.2467 263.12 32.2701 263.051 32.2662 262.981C31.6236 253.971 22.447 244.411 16.1511 241.523C16.1199 241.509 16.086 241.501 16.0516 241.5C16.0172 241.498 15.9829 241.504 15.9507 241.516C15.9184 241.528 15.8889 241.546 15.8638 241.57C15.8387 241.594 15.8186 241.622 15.8046 241.653C15.7889 241.685 15.7799 241.719 15.778 241.755C15.7761 241.79 15.7814 241.825 15.7936 241.858C15.8057 241.891 15.8245 241.922 15.8487 241.947C15.873 241.973 15.9021 241.993 15.9345 242.007C22.1076 244.837 31.0965 254.202 31.7319 263.017C31.7346 263.053 31.7443 263.087 31.7603 263.118C31.7763 263.15 31.7984 263.177 31.8252 263.2C31.852 263.223 31.8831 263.24 31.9167 263.251C31.9502 263.262 31.9856 263.266 32.0207 263.263V263.263Z" fill="#FAFAFA"/>
<path d="M26.5408 250.917C26.5873 250.914 26.6322 250.898 26.6705 250.871C26.7087 250.845 26.7388 250.808 26.7574 250.765C26.7715 250.734 26.7791 250.7 26.7799 250.666C26.7806 250.632 26.7743 250.598 26.7615 250.566C26.7487 250.534 26.7295 250.505 26.7052 250.481C26.6809 250.457 26.652 250.438 26.6202 250.426C23.0535 248.895 19.2269 248.794 16.8587 250.159C16.8259 250.174 16.7967 250.196 16.7728 250.223C16.7489 250.25 16.731 250.282 16.7201 250.316C16.7092 250.351 16.7057 250.387 16.7096 250.423C16.7136 250.459 16.7251 250.494 16.7432 250.525C16.7614 250.556 16.7858 250.583 16.8151 250.605C16.8443 250.626 16.8777 250.641 16.913 250.648C16.9483 250.656 16.9849 250.656 17.0203 250.649C17.0557 250.642 17.0892 250.627 17.1187 250.606C19.3424 249.321 22.9957 249.437 26.418 250.895C26.4553 250.916 26.4986 250.924 26.5408 250.917V250.917Z" fill="#FAFAFA"/>
<path d="M208.817 262.035C205.33 255.537 207.373 248.216 210.376 243.076C213.546 237.617 209.488 234.036 205.38 238.152C201.272 242.267 201.431 252.765 206.254 260.974L208.817 262.035Z" fill="#37474F"/>
<path d="M206.391 259.747C206.355 259.746 206.32 259.735 206.29 259.714C206.261 259.694 206.238 259.665 206.225 259.631C202.124 249.437 205.084 241.509 207.481 238.433C207.497 238.416 207.517 238.402 207.539 238.393C207.56 238.383 207.584 238.379 207.607 238.379C207.631 238.379 207.655 238.383 207.676 238.393C207.698 238.402 207.718 238.416 207.734 238.433C207.767 238.467 207.785 238.512 207.785 238.56C207.785 238.607 207.767 238.652 207.734 238.686C207.474 239.018 201.46 246.946 206.521 259.523C206.53 259.545 206.536 259.568 206.536 259.592C206.536 259.616 206.532 259.639 206.523 259.662C206.515 259.684 206.502 259.704 206.485 259.721C206.469 259.738 206.449 259.752 206.427 259.761L206.391 259.747Z" fill="#FAFAFA"/>
<path d="M207.041 259.869C206.023 255.848 208.853 249.184 213.156 246.383C217.026 243.87 219.307 244.043 220.427 245.451C221.546 246.859 219.798 248.982 216.817 250.787C213.835 252.592 208.983 256.563 208.817 261.126L207.041 259.869Z" fill="#455A64"/>
<path d="M207.719 259.732C207.673 259.725 207.631 259.7 207.602 259.662C207.574 259.624 207.562 259.577 207.568 259.53C208.434 253.184 213.763 247.256 217.936 246.13C217.959 246.123 217.983 246.122 218.007 246.125C218.031 246.128 218.054 246.135 218.075 246.148C218.096 246.16 218.114 246.176 218.129 246.195C218.143 246.214 218.154 246.236 218.16 246.26C218.171 246.306 218.163 246.354 218.139 246.395C218.115 246.435 218.075 246.464 218.03 246.476C213.958 247.545 208.774 253.371 207.922 259.581C207.919 259.604 207.912 259.627 207.9 259.648C207.888 259.668 207.872 259.686 207.853 259.7C207.834 259.714 207.813 259.725 207.79 259.73C207.767 259.736 207.743 259.736 207.719 259.732V259.732Z" fill="#FAFAFA"/>
<path d="M158.753 262.223C162.241 255.725 160.197 248.397 157.201 243.256C154.024 237.805 158.089 234.224 162.19 238.339C166.291 242.455 166.147 252.953 161.316 261.162L158.753 262.223Z" fill="#37474F"/>
<path d="M161.179 259.92H161.114C161.092 259.911 161.071 259.898 161.054 259.881C161.037 259.865 161.023 259.844 161.013 259.822C161.004 259.8 160.999 259.776 160.999 259.752C160.999 259.728 161.004 259.704 161.013 259.682C166.067 247.105 160.06 239.177 159.8 238.845C159.767 238.811 159.749 238.766 159.749 238.719C159.749 238.671 159.767 238.626 159.8 238.592C159.817 238.575 159.836 238.561 159.858 238.552C159.88 238.542 159.903 238.537 159.927 238.537C159.95 238.537 159.974 238.542 159.996 238.552C160.017 238.561 160.037 238.575 160.053 238.592C162.45 241.668 165.417 249.595 161.309 259.79C161.301 259.821 161.285 259.85 161.262 259.873C161.239 259.896 161.211 259.912 161.179 259.92Z" fill="#FAFAFA"/>
<path d="M160.53 260.057C161.555 256.036 158.725 249.364 154.421 246.57C150.544 244.05 148.27 244.231 147.144 245.639C146.017 247.047 147.772 249.169 150.754 250.974C153.735 252.779 158.58 256.75 158.746 261.313L160.53 260.057Z" fill="#455A64"/>
<path d="M159.858 259.92C159.814 259.92 159.771 259.904 159.737 259.875C159.704 259.846 159.683 259.805 159.678 259.761C158.826 253.559 153.642 247.733 149.57 246.664C149.544 246.661 149.519 246.653 149.496 246.64C149.474 246.627 149.455 246.609 149.44 246.588C149.425 246.567 149.415 246.543 149.41 246.517C149.405 246.492 149.406 246.466 149.412 246.441C149.419 246.416 149.43 246.392 149.447 246.372C149.463 246.352 149.483 246.335 149.506 246.323C149.529 246.312 149.555 246.305 149.581 246.304C149.606 246.303 149.632 246.308 149.656 246.317C153.837 247.408 159.158 253.371 160.031 259.718C160.036 259.765 160.021 259.813 159.992 259.85C159.962 259.888 159.92 259.913 159.872 259.92H159.858Z" fill="#FAFAFA"/>
<path d="M205.464 258.057C205.686 257.738 205.887 257.405 206.067 257.06C206.118 256.972 206.162 256.883 206.206 256.787C206.348 256.503 206.471 256.211 206.575 255.911L206.676 255.638C206.794 255.275 206.887 254.903 206.956 254.527V254.527C207.016 254.151 207.048 253.771 207.051 253.391C207.051 253.283 207.051 253.169 207.051 253.054C207.046 252.791 207.024 252.528 206.987 252.267C206.987 252.127 206.949 251.994 206.924 251.854C206.873 251.607 206.81 251.353 206.733 251.099C206.695 250.978 206.664 250.851 206.619 250.724C206.497 250.363 206.348 250.011 206.175 249.67C206.118 249.556 206.048 249.455 205.984 249.34C205.849 249.087 205.701 248.841 205.54 248.604L205.222 248.166C205.14 248.058 205.076 247.95 204.988 247.842L204.594 247.417L204.384 247.182C201.929 244.36 198.897 242.098 195.493 240.548C192.089 238.998 188.393 238.195 184.652 238.195C180.912 238.195 177.215 238.998 173.811 240.548C170.408 242.098 167.376 244.36 164.92 247.182L164.749 247.372C164.616 247.531 164.482 247.69 164.355 247.829C164.228 247.969 164.19 248.058 164.108 248.172C164.025 248.286 163.905 248.439 163.816 248.578C163.638 248.839 163.479 249.105 163.327 249.372C163.282 249.467 163.219 249.556 163.174 249.645C162.997 249.994 162.844 250.354 162.717 250.724C162.679 250.832 162.654 250.947 162.622 251.054C162.54 251.319 162.472 251.589 162.419 251.861C162.419 251.988 162.375 252.108 162.355 252.235C162.317 252.515 162.298 252.794 162.286 253.073C162.286 253.175 162.286 253.27 162.286 253.365C162.302 254.15 162.439 254.927 162.692 255.67C162.692 255.746 162.749 255.829 162.775 255.911C162.888 256.223 163.02 256.528 163.168 256.826L163.282 257.067C163.473 257.428 163.685 257.778 163.917 258.114C163.914 258.129 163.914 258.144 163.917 258.159C164.195 258.551 164.496 258.926 164.819 259.282L164.889 259.352C165.189 259.674 165.513 259.991 165.86 260.305L166.108 260.514C166.425 260.787 166.742 261.054 167.123 261.314C167.212 261.378 167.295 261.447 167.39 261.511C167.841 261.828 168.317 262.146 168.838 262.438C177.567 267.485 191.757 267.485 200.486 262.438C201 262.139 201.47 261.835 201.921 261.517C202.029 261.447 202.118 261.371 202.219 261.301C202.569 261.047 202.892 260.793 203.204 260.527L203.477 260.292C203.803 260.003 204.115 259.698 204.41 259.378L204.511 259.276C204.83 258.926 205.127 258.557 205.4 258.171L205.464 258.057Z" fill="#92B1E3"/>
<g style="mix-blend-mode:multiply" opacity="0.2">
<path d="M205.464 258.057C205.686 257.738 205.887 257.405 206.067 257.06C206.118 256.972 206.162 256.883 206.206 256.787C206.348 256.503 206.471 256.211 206.575 255.911L206.676 255.638C206.794 255.275 206.887 254.903 206.956 254.527V254.527C207.016 254.151 207.048 253.771 207.051 253.391C207.051 253.283 207.051 253.169 207.051 253.054C207.046 252.791 207.024 252.528 206.987 252.267C206.987 252.127 206.949 251.994 206.924 251.854C206.873 251.607 206.81 251.353 206.733 251.099C206.695 250.978 206.664 250.851 206.619 250.724C206.497 250.363 206.348 250.011 206.175 249.67C206.118 249.556 206.048 249.455 205.984 249.34C205.849 249.087 205.701 248.841 205.54 248.604L205.222 248.166C205.14 248.058 205.076 247.95 204.988 247.842L204.594 247.417L204.384 247.182C201.929 244.36 198.897 242.098 195.493 240.548C192.089 238.998 188.393 238.195 184.652 238.195C180.912 238.195 177.215 238.998 173.811 240.548C170.408 242.098 167.376 244.36 164.92 247.182L164.749 247.372C164.616 247.531 164.482 247.69 164.355 247.829C164.228 247.969 164.19 248.058 164.108 248.172C164.025 248.286 163.905 248.439 163.816 248.578C163.638 248.839 163.479 249.105 163.327 249.372C163.282 249.467 163.219 249.556 163.174 249.645C162.997 249.994 162.844 250.354 162.717 250.724C162.679 250.832 162.654 250.947 162.622 251.054C162.54 251.319 162.472 251.589 162.419 251.861C162.419 251.988 162.375 252.108 162.355 252.235C162.317 252.515 162.298 252.794 162.286 253.073C162.286 253.175 162.286 253.27 162.286 253.365C162.302 254.15 162.439 254.927 162.692 255.67C162.692 255.746 162.749 255.829 162.775 255.911C162.888 256.223 163.02 256.528 163.168 256.826L163.282 257.067C163.473 257.428 163.685 257.778 163.917 258.114C163.914 258.129 163.914 258.144 163.917 258.159C164.195 258.551 164.496 258.926 164.819 259.282L164.889 259.352C165.189 259.674 165.513 259.991 165.86 260.305L166.108 260.514C166.425 260.787 166.742 261.054 167.123 261.314C167.212 261.378 167.295 261.447 167.39 261.511C167.841 261.828 168.317 262.146 168.838 262.438C177.567 267.485 191.757 267.485 200.486 262.438C201 262.139 201.47 261.835 201.921 261.517C202.029 261.447 202.118 261.371 202.219 261.301C202.569 261.047 202.892 260.793 203.204 260.527L203.477 260.292C203.803 260.003 204.115 259.698 204.41 259.378L204.511 259.276C204.83 258.926 205.127 258.557 205.4 258.171L205.464 258.057Z" fill="black"/>
</g>
<g opacity="0.5">
<path opacity="0.5" d="M188.087 245.366C187.135 245.607 189.014 249.112 191.039 255.334C192.106 258.622 192.677 263.339 198.023 260.717C202.956 258.298 198.823 252.604 195.001 248.966C191.611 245.728 189.109 245.106 188.087 245.366Z" fill="#92B1E3"/>
<path opacity="0.5" d="M188.97 243.22C189.471 243.48 192.563 243.887 197.54 248.534C200.213 251.035 202.302 254.197 203.299 254.603C204.296 255.01 204.988 250.635 203.299 248.451C201.204 245.759 198.365 243.742 195.134 242.649C191.687 241.614 188.138 242.788 188.97 243.22Z" fill="#92B1E3"/>
<path opacity="0.5" d="M184.665 263.841C179.529 263.841 178.659 262.914 180.64 254.629C181.681 250.255 183.814 245.861 184.665 245.861C185.516 245.861 187.649 250.255 188.697 254.629C190.677 262.914 189.808 263.841 184.665 263.841Z" fill="#92B1E3"/>
<path opacity="0.5" d="M181.25 245.366C182.202 245.607 180.323 249.112 178.297 255.334C177.231 258.622 176.659 263.339 171.314 260.717C166.381 258.298 170.514 252.604 174.336 248.966C177.726 245.728 180.227 245.106 181.25 245.366Z" fill="#92B1E3"/>
<path opacity="0.5" d="M180.361 243.22C179.865 243.48 176.774 243.887 171.796 248.534C169.123 251.035 167.035 254.197 166.038 254.603C165.041 255.01 164.349 250.635 166.038 248.451C168.131 245.758 170.97 243.74 174.202 242.649C177.65 241.614 181.199 242.788 180.361 243.22Z" fill="#92B1E3"/>
</g>
<path d="M184.665 219.196C184.068 219.187 183.478 219.329 182.951 219.609C182.777 219.693 182.623 219.815 182.504 219.967C182.384 220.119 182.3 220.296 182.259 220.485C181.827 230.738 181.027 235.722 177.751 241.15C177.751 242.173 178.424 243.195 179.783 243.976C181.287 244.781 182.972 245.185 184.678 245.15V245.15C186.385 245.186 188.073 244.782 189.579 243.976C190.938 243.195 191.611 242.173 191.611 241.15C188.335 235.703 187.535 230.738 187.103 220.485C187.062 220.296 186.978 220.119 186.859 219.967C186.739 219.815 186.586 219.693 186.411 219.609C185.874 219.324 185.273 219.182 184.665 219.196V219.196Z" fill="#92B1E3"/>
<g style="mix-blend-mode:multiply" opacity="0.3">
<path d="M184.665 219.196C184.068 219.187 183.478 219.329 182.951 219.609C182.777 219.693 182.623 219.815 182.504 219.967C182.384 220.119 182.3 220.296 182.259 220.485C181.827 230.738 181.027 235.722 177.751 241.15C177.751 242.173 178.424 243.195 179.783 243.976C181.287 244.781 182.972 245.185 184.678 245.15V245.15C186.385 245.186 188.073 244.782 189.579 243.976C190.938 243.195 191.611 242.173 191.611 241.15C188.335 235.703 187.535 230.738 187.103 220.485C187.062 220.296 186.978 220.119 186.859 219.967C186.739 219.815 186.586 219.693 186.411 219.609C185.874 219.324 185.273 219.182 184.665 219.196V219.196Z" fill="black"/>
</g>
<g style="mix-blend-mode:multiply" opacity="0.15">
<path d="M187.135 221.526C185.49 221.59 183.846 221.59 182.202 221.526C182.056 224.739 181.865 227.875 181.567 230.834C183.624 230.796 185.679 230.673 187.732 230.465C187.452 227.627 187.274 224.612 187.135 221.526Z" fill="black"/>
</g>
<g style="mix-blend-mode:multiply" opacity="0.15">
<path d="M172.152 259.346C164.876 254.794 165.39 246.648 170.215 242.522C168.251 243.826 166.472 245.389 164.927 247.169L164.755 247.359C164.622 247.518 164.489 247.677 164.362 247.817C164.235 247.956 164.197 248.045 164.114 248.159C164.032 248.274 163.911 248.426 163.822 248.566C163.644 248.826 163.486 249.093 163.333 249.359C163.289 249.455 163.225 249.543 163.181 249.632C163.003 249.981 162.851 250.342 162.724 250.712C162.686 250.82 162.66 250.934 162.622 251.042C162.546 251.315 162.476 251.581 162.425 251.848C162.425 251.975 162.381 252.096 162.362 252.223C162.324 252.502 162.305 252.781 162.292 253.061C162.292 253.162 162.292 253.258 162.292 253.353C162.305 254.141 162.44 254.923 162.692 255.67C162.692 255.746 162.749 255.829 162.775 255.911C162.888 256.223 163.02 256.528 163.168 256.826L163.282 257.067C163.473 257.429 163.685 257.778 163.917 258.114C163.914 258.129 163.914 258.144 163.917 258.159C164.195 258.551 164.496 258.926 164.819 259.282L164.889 259.352C165.189 259.674 165.513 259.991 165.86 260.305L166.108 260.514C166.425 260.787 166.742 261.054 167.123 261.314C167.212 261.378 167.295 261.447 167.39 261.511C167.841 261.828 168.317 262.146 168.838 262.438C177.567 267.485 191.757 267.485 200.486 262.438C201 262.139 201.47 261.835 201.921 261.517C202.029 261.447 202.118 261.371 202.219 261.301C202.569 261.047 202.892 260.793 203.203 260.527L203.476 260.292C203.803 260.003 204.114 259.698 204.41 259.378L204.511 259.276C195.426 265.707 179.434 263.923 172.152 259.346Z" fill="black"/>
</g>
<path d="M234.776 193.452C228.178 200.047 220.346 205.278 211.727 208.847C203.107 212.415 193.869 214.251 184.541 214.249C165.7 214.245 147.633 206.758 134.313 193.433C120.993 180.108 113.512 162.038 113.516 143.197C113.519 124.357 121.007 106.29 134.332 92.9699L129.748 88.3925C97.8075 120.333 94.7601 169.092 126.72 201.032C158.68 232.973 207.349 229.907 239.322 197.966L234.776 193.452Z" fill="#37474F"/>
<path d="M124.866 93.681L129.501 98.3156C131.021 96.454 132.633 94.6699 134.332 92.9699L129.748 88.3925C128.034 90.1066 126.407 91.8695 124.866 93.681Z" fill="#263238"/>
<path d="M234.776 193.452C233.091 195.138 231.321 196.738 229.475 198.245L234.078 202.848C235.868 201.312 237.616 199.695 239.322 197.998L234.776 193.452Z" fill="#263238"/>
<path d="M107.21 150.16C109.261 166.952 115.305 186.449 131.577 200.747C145.442 212.924 166.647 225.85 199.299 221.063C174.069 227.45 147.011 221.311 126.72 201.02C95.7251 170.025 97.6615 123.216 126.98 91.2812C125.774 92.7351 103.509 119.882 107.21 150.16Z" fill="#455A64"/>
<path d="M241.855 204.486C242.652 204.488 243.432 204.253 244.096 203.811C244.759 203.368 245.277 202.739 245.582 202.003C245.887 201.266 245.967 200.455 245.811 199.673C245.655 198.891 245.27 198.173 244.705 197.61L130.097 83.0849C129.34 82.3272 128.312 81.9015 127.24 81.9015C126.169 81.9015 125.141 82.3272 124.383 83.0849C123.626 83.8426 123.2 84.8703 123.2 85.9418C123.2 87.0134 123.626 88.0411 124.383 88.7988L239.004 203.312C239.762 204.064 240.787 204.486 241.855 204.486V204.486Z" fill="#37474F"/>
<path d="M130.097 83.0849L244.706 197.61C245.249 198.158 245.625 198.849 245.788 199.603C245.951 200.356 245.895 201.141 245.626 201.864C244.924 202.103 244.169 202.139 243.448 201.967C242.727 201.795 242.069 201.423 241.55 200.893L126.942 86.3673C126.397 85.8211 126.021 85.1297 125.857 84.3756C125.694 83.6214 125.751 82.8362 126.022 82.1136C126.724 81.8842 127.477 81.8535 128.196 82.025C128.916 82.1964 129.573 82.5632 130.097 83.0849V83.0849Z" fill="#455A64"/>
<path d="M118.72 143.201C118.722 157.93 123.663 172.234 132.752 183.823C141.842 195.413 154.555 203.62 168.86 207.132C183.164 210.644 198.233 209.258 211.656 203.195C225.08 197.133 236.082 186.744 242.905 173.69C249.728 160.637 251.976 145.672 249.29 131.19C246.605 116.708 239.141 103.545 228.091 93.8052C217.042 84.0657 203.046 78.3127 188.341 77.4661C173.637 76.6195 159.073 80.7282 146.979 89.1353C138.256 95.1984 131.13 103.283 126.209 112.697C121.288 122.112 118.719 132.578 118.72 143.201V143.201Z" fill="#92B1E3"/>
<path opacity="0.5" d="M118.72 143.201C118.722 157.93 123.663 172.234 132.752 183.823C141.842 195.413 154.555 203.62 168.86 207.132C183.164 210.644 198.233 209.258 211.656 203.195C225.08 197.133 236.082 186.744 242.905 173.69C249.728 160.637 251.976 145.672 249.29 131.19C246.605 116.708 239.141 103.545 228.091 93.8052C217.042 84.0657 203.046 78.3127 188.341 77.4661C173.637 76.6195 159.073 80.7282 146.979 89.1353C138.256 95.1984 131.13 103.283 126.209 112.697C121.288 122.112 118.719 132.578 118.72 143.201V143.201Z" fill="white"/>
<path d="M198.125 88.1131C195.306 87.0402 191.325 86.5958 193.287 89.2242C195.249 91.8526 196.848 92.6652 196.042 94.7349C195.236 96.8046 193.026 98.4299 193.103 100.157C193.179 101.884 193.591 104.023 194.849 103.966C196.106 103.909 200.321 101.814 201.921 102.626C203.521 103.439 209.076 105.96 210.638 104.436C212.2 102.912 212.987 103.382 215.165 101.865C217.342 100.347 218.339 97.5792 216.72 96.9062C215.101 96.2332 214.574 96.849 211.889 95.5412C209.203 94.2334 208.657 91.897 205.768 91.3002C202.88 90.7034 200.188 88.9004 198.125 88.1131Z" fill="#455A64"/>
<path d="M187.452 84.6848C183.605 85.1101 175.904 84.9895 173.155 82.8944C171.796 81.8469 170.215 80.5009 168.406 79.3582C153.02 83.2614 139.556 92.5766 130.478 105.598C130.599 107.429 130.951 109.238 131.526 110.981C132.796 114.791 135.164 116.156 137.995 117.965C140.827 119.774 139.176 121.139 139.957 123.533C140.738 125.926 140.96 127.253 142.3 128.91C143.639 130.567 140.573 131.45 139.125 133.17C137.678 134.891 137.018 135.907 136.827 140.491C136.637 145.074 139.417 149.976 140.001 152.02C140.586 154.064 137.817 155.048 137.03 158.515C136.243 161.981 132.624 170.577 133.805 176.685C134.986 182.792 137.081 182.983 138.141 179.599C139.201 176.215 139.411 172.692 142.268 170.99C145.125 169.289 148.744 171.479 151.855 167.498C154.965 163.518 155.715 164.07 158.413 163.378C161.111 162.686 160.705 160.997 164.032 158.299C167.358 155.601 169.25 152.547 166.958 149.969C164.666 147.392 162.705 146.795 161.6 142.408C160.36 137.829 158.176 133.56 155.188 129.875C152.407 126.523 145.823 126.618 143.83 125.063C141.836 123.508 142.135 118.651 142.941 117.051C143.747 115.451 142.249 114.353 140.465 114.105C138.681 113.857 138.198 112.467 138.617 110.118C139.036 107.769 143.506 106.385 146.325 107.274C149.144 108.163 150.134 110.016 149.239 113.762C148.837 115.257 148.914 116.839 149.458 118.288C150.003 119.736 150.987 120.978 152.274 121.838C154.546 123.476 154.02 120.219 152.947 117.711C151.874 115.203 152.407 113.521 155.34 110.093C158.273 106.664 161.473 108.302 165.403 105.648C169.333 102.995 168.717 105.928 171.072 107.286C173.428 108.645 173.612 107.153 175.428 105.248C177.243 103.344 179.656 106.575 183.008 105.769C186.36 104.963 182.062 99.9028 183.421 97.5157C184.779 95.1285 187.23 96.2459 187.344 91.9478C187.459 87.6497 189.427 88.2655 190.976 87.2624C192.525 86.2593 191.261 84.2531 187.452 84.6848ZM180.094 92.3478C178.532 93.8651 177.961 93.2239 175.796 94.7095C173.631 96.1951 171.066 96.4745 169.631 96.0935C168.196 95.7126 166.927 92.3858 167.409 90.8367C167.892 89.2876 170.247 89.713 172.825 90.3733C175.402 91.0336 177.904 90.805 180.849 89.9543C183.141 89.2749 181.637 90.8304 180.075 92.3478H180.094Z" fill="#455A64"/>
<path d="M247.347 162.978L247.296 163.156C246.663 163.151 246.035 163.276 245.452 163.523C244.869 163.769 244.343 164.133 243.906 164.59C241.157 167.441 241.499 165.86 237.309 166.851C233.119 167.841 233.633 170.184 232.865 172.565C232.097 174.945 227.278 176.075 225.081 176.152C222.885 176.228 219.939 181.193 219.52 184.005C219.101 186.818 215.603 186.64 212.778 188.233C209.952 189.827 207.305 193.312 205.318 194.709C204.346 195.413 203.191 195.821 201.993 195.884C200.794 195.947 199.603 195.662 198.563 195.065C196.48 193.795 195.89 189.268 195.966 185.58C196.008 181.816 197.108 178.139 199.14 174.971C201.229 171.765 200.81 172.095 202.162 166.324C203.515 160.553 200.321 157.391 198.429 156.026C196.537 154.661 192.569 154.49 191.135 152.648C189.7 150.807 189.528 148.896 190.366 143.278C191.204 137.659 194.176 137.513 197.286 135.545C200.397 133.577 205.445 132.231 209.349 132.669C213.254 133.107 215.266 134.992 216.968 136.929C218.669 138.865 218.733 141.659 220.193 142.433C221.653 143.208 223.285 142.941 224.701 143.849C226.116 144.757 226.84 145.912 228.427 146.255C230.014 146.598 229.76 144.509 229.926 143.474C230.091 142.44 228.656 142.148 226.859 141.417C225.062 140.687 224.821 140.014 224.656 138.573C224.491 137.132 223.056 137.761 222.39 136.929C221.723 136.097 221.012 138.357 220.599 139.17C220.187 139.983 220.123 138.23 220.123 138.23C220.123 138.23 218.923 139.094 218.815 138.434C218.707 137.773 219.952 136.789 220.377 135.437C220.802 134.085 218.783 133.634 218.003 132.148C217.222 130.663 215.634 129.856 213.806 129.748C211.978 129.64 211.838 129.114 210.555 130.269C209.273 131.424 205.375 130.961 204.34 130.332C203.305 129.704 204.975 127.749 206.746 126.136C208.517 124.523 210.194 125.977 212.225 124.454C214.257 122.93 212.695 121.971 211.698 121.19C210.701 120.409 210.784 119.197 212.968 117.102C215.152 115.007 216.46 116.34 216.625 117.787C216.79 119.235 217.971 120.384 219.488 121.006C221.006 121.628 221.063 120.422 221.907 118.213C222.751 116.003 224.237 115.229 226.567 115.191C228.897 115.153 232.782 115.127 234.547 114.448C236.312 113.769 238.255 115.451 238.934 117.216C239.614 118.981 242.071 120.524 244.648 122.111C244.984 122.309 245.361 122.424 245.749 122.448C246.137 122.473 246.526 122.405 246.883 122.251C251.36 135.432 251.522 149.698 247.347 162.978V162.978Z" fill="#455A64"/>
<path d="M223.869 188.443C222.478 187.592 222.415 188.138 221.075 188.957C219.736 189.776 217.901 190.601 217.666 191.909C217.431 193.217 216.923 194.773 218.301 194.284C219.679 193.795 219.761 192.576 221.475 192.5C223.189 192.424 225.945 189.713 223.869 188.443Z" fill="#455A64"/>
<path opacity="0.1" d="M222.155 95.4015C187.732 68.5843 169.841 92.2271 183.776 117.191C197.712 142.154 230.865 161.829 240.045 152.744C249.226 143.659 247.766 115.362 222.155 95.4015Z" fill="white"/>
<path opacity="0.15" d="M155.708 167.181C135.392 130.25 155.626 82.4436 188.379 77.4853C187.109 77.4091 185.84 77.3583 184.57 77.3583C173.721 77.3567 163.04 80.0365 153.476 85.1592C143.913 90.2819 135.764 97.6888 129.754 106.721C123.744 115.753 120.059 126.131 119.028 136.931C117.997 147.73 119.651 158.618 123.842 168.624C128.034 178.631 134.634 187.446 143.055 194.286C151.476 201.126 161.457 205.779 172.11 207.831C182.763 209.883 193.758 209.27 204.118 206.047C214.477 202.824 223.879 197.091 231.487 189.357C218.187 197.795 176.024 204.086 155.708 167.181Z" fill="black"/>
<path d="M39.7823 260.786C40.4248 258.664 45.0817 244.115 46.8579 239.184C48.865 233.618 49.1394 231.654 50.3812 226.578C50.966 224.167 51.6086 221.611 52.244 219.048C53.0959 223.004 54.3667 230.008 54.641 231.553C54.641 231.791 54.5977 232.08 54.5688 232.412C54.0345 234.802 54.0201 236.498 54.0706 239.69C54.0706 241.711 55.4063 250.173 56.1356 255.292C56.3016 256.426 56.4749 257.559 56.5904 258.7C56.608 259.8 56.3366 260.885 55.8034 261.848C55.3826 262.663 55.2381 263.593 55.3919 264.498C55.4401 264.78 55.5327 265.053 55.6663 265.306C56.1283 266.144 57.0597 266.411 57.8323 266.887C58.7725 267.657 59.6291 268.523 60.3881 269.472C61.1567 270.359 62.0727 271.106 63.0956 271.681C64.3342 272.162 65.645 272.431 66.9728 272.476C67.7325 272.518 68.4944 272.462 69.2399 272.31C69.9414 272.283 70.6329 272.134 71.2831 271.869C71.55 271.745 71.7787 271.552 71.9451 271.309C72.1115 271.067 72.2096 270.784 72.2289 270.49C72.1707 270.153 72.0431 269.833 71.8542 269.548C71.6652 269.263 71.4191 269.021 71.1315 268.837C68.1496 266.331 63.8032 263.198 63.0162 259.184C63.0162 259.184 63.4566 255.942 63.6227 253.992C64.2075 247.386 64.453 242.058 65.0162 236.845C65.7382 230.52 65.9331 229.791 65.8104 224.398C65.767 222.571 65.6804 220.622 65.5649 218.622C65.4638 212.304 65.0595 206.182 65.0739 201.474C65.0739 201.474 56.3377 201.64 49.4137 202.081C41.9483 202.99 39.3996 204.68 39.6234 205.633C38.9871 208.987 38.6129 212.386 38.5043 215.799C38.2661 220.354 37.5441 232.217 37.5441 232.217C35.7698 235.256 34.6715 238.642 34.3239 242.144C34.1146 244.152 33.3059 257.689 33.1326 258.671C32.8455 259.578 32.4297 260.438 31.898 261.227C31.4933 261.801 31.2445 262.47 31.176 263.169C31.1663 263.413 31.1981 263.657 31.2699 263.891C31.537 264.75 32.3168 265.335 32.9377 265.956C33.9898 267.119 34.6776 268.565 34.916 270.115C35.2246 271.456 35.9354 272.671 36.9535 273.598C37.9715 274.524 39.2481 275.118 40.6126 275.299C42.2287 275.499 43.8638 275.126 45.2334 274.245C45.7821 273.884 46.338 273.299 46.2008 272.649C46.0402 272.203 45.7285 271.828 45.32 271.588C42.3965 269.31 40.4251 266.026 39.7895 262.375C39.6781 261.844 39.6781 261.296 39.7895 260.765" fill="#FEF1CF"/>
<path d="M55.4641 265.588C55.4641 265.588 55.2259 265.588 55.2547 266.18C55.2415 266.441 55.3022 266.701 55.4299 266.93C55.5576 267.158 55.7471 267.346 55.9767 267.472C56.4749 267.833 58.2511 268.555 59.3629 270.021C60.1427 271.053 60.482 272.187 63.0884 273.551C65.6949 274.916 69.4421 274.374 70.7417 273.717C72.0413 273.06 72.3228 272.793 72.395 271.631L55.4641 265.588Z" fill="#263238"/>
<path d="M62.9945 259.198C62.6696 259.696 60.9079 259.92 60.1065 260.238C59.3051 260.555 59.4423 262.288 59.4423 262.288C58.7203 262.288 58.7203 261.761 58.4459 260.844C58.0488 259.335 56.9297 259.342 56.5687 259.147V258.685C56.5687 258.685 56.186 258.577 56.0994 259.299C55.971 260.268 55.7535 261.222 55.4496 262.151C55.233 262.794 54.8792 265.147 55.3774 265.862C55.8616 266.293 56.3836 266.68 56.9369 267.017C58.1469 267.715 59.2089 268.642 60.0632 269.746C60.6985 270.707 62.6552 272.93 66.9511 272.974C71.247 273.017 72.4383 271.472 72.4383 271.472C72.7267 270.96 72.8125 270.359 72.6789 269.786C72.5452 269.214 72.2017 268.713 71.7163 268.382C69.9401 267.075 69.1893 266.505 67.0016 264.772C63.4133 261.913 64.3519 258.866 62.9945 259.198Z" fill="#455A64"/>
<path d="M62.5181 271.927C63.37 269.819 64.5036 268.317 66.7779 267.487C69.0522 266.656 70.0918 266.923 71.0304 267.487C71.969 268.05 73.608 269.458 72.4744 271.486C72.4744 271.486 71.8319 273.14 67.702 273.227C63.5722 273.313 62.5181 271.927 62.5181 271.927Z" fill="#FAFAFA"/>
<path d="M30.5406 264.44C30.3529 265.162 30.1435 265.739 30.815 266.541C31.4865 267.342 32.3384 267.819 32.9232 268.447C33.5081 269.075 33.7391 270.461 34.1001 271.638C34.6318 273.368 35.7702 274.847 37.3058 275.804C39.0963 276.793 40.5331 277.248 42.6053 276.873C44.6774 276.497 45.7965 275.855 46.3091 274.079L30.5406 264.44Z" fill="#263238"/>
<path d="M40.1794 260.519C40.497 259.66 38.3599 260.96 35.9773 260.382C35.5513 260.281 35.3492 260.469 35.2553 260.909C35.1615 261.35 35.0532 261.819 34.5333 261.631C34.4303 261.586 34.3378 261.519 34.262 261.436C34.1862 261.353 34.1286 261.254 34.0929 261.147C34.0258 260.931 33.9798 260.709 33.9557 260.483C33.8619 259.87 33.7102 258.967 33.1254 258.664L33.2337 257.942C33.2337 257.942 32.6778 257.429 32.324 259.169C31.9702 260.909 30.158 262.057 30.5695 264.433C31.0015 265.21 31.5687 265.905 32.2446 266.483C33.4283 267.385 34.2443 268.685 34.5405 270.144C34.9232 271.913 36.5694 274.598 38.9736 275.299C40.2434 275.703 41.5932 275.789 42.9039 275.548C44.2147 275.308 45.4461 274.748 46.4896 273.92C46.6626 273.667 46.7827 273.382 46.8426 273.082C46.9026 272.782 46.9011 272.473 46.8384 272.173C46.7756 271.874 46.6529 271.59 46.4776 271.339C46.3022 271.089 46.0779 270.876 45.8182 270.714C44.3962 269.642 43.1345 268.373 42.071 266.945C40.9591 265.624 39.8545 262.483 40.1794 260.519Z" fill="#455A64"/>
<path d="M36.461 273.703C37.5584 272.021 38.9302 270.093 41.515 269.544C44.0998 268.996 45.2044 270.129 46.078 270.873C46.3134 271.042 46.5107 271.258 46.6573 271.508C46.8039 271.757 46.8965 272.035 46.9292 272.323C46.9618 272.611 46.9338 272.902 46.8469 273.178C46.76 273.455 46.6161 273.71 46.4246 273.927C45.7228 274.642 44.8689 275.189 43.9263 275.527C42.9837 275.866 41.9769 275.988 40.9807 275.883C40.1204 275.838 39.2778 275.621 38.5019 275.247C37.726 274.873 37.0322 274.348 36.461 273.703V273.703Z" fill="#FAFAFA"/>
<path d="M39.2768 201.221C39.2768 201.221 38.6992 208.001 38.4899 211.979C38.2805 215.957 37.0459 231.95 37.0459 231.95C35.372 234.871 34.3475 238.12 34.0423 241.473C33.5297 246.707 33.3564 252.144 33.2337 253.797C33.2337 253.797 37.313 256.483 41.6233 255.53C41.941 254.325 47.6448 238.202 48.9155 234.058C50.1429 230.051 52.1934 220.535 52.1934 220.535C52.1934 220.535 54.0201 229.495 53.7385 231.184C52.6122 237.986 55.1825 249.437 55.6807 254.144C55.6807 254.144 56.1933 255.487 59.5723 255.53C63.0667 255.574 63.7238 254.382 63.7238 254.382C63.7238 254.382 65.8898 231.762 66.128 227.495C66.3663 223.228 65.5504 207.041 65.0234 201.503L39.2768 201.221Z" fill="#455A64"/>
<path d="M52.2223 220.535L52.9443 216.29C52.9443 216.29 58.6192 215.878 61.1318 213.069C61.1318 213.069 60.2654 216.781 54.3233 217.308L53.5291 221.409L53.7313 229.683C53.3269 226.593 52.771 223.892 52.2223 220.535Z" fill="#37474F"/>
<path d="M76.1855 151.541L72.5755 163.02C72.5755 163.02 61.4422 169.208 56.316 171.461C57.9839 172.5 59.204 174.002 60.5903 177.013L61.7166 180.038C61.7166 180.038 71.6513 173.829 77.2757 169.432C79.8388 167.432 80.1637 165.562 80.5103 163.555C80.9507 161.1 81.1528 159.67 81.7593 155.151C81.9037 154.024 82.0626 152.985 82.207 152.01C82.4986 150.386 82.8746 148.779 83.3333 147.194C83.7477 145.641 83.8362 144.018 83.5932 142.429C83.5483 141.178 83.0782 139.98 82.2604 139.032C81.4426 138.084 80.3261 137.444 79.0951 137.216C78.7795 137.095 78.4318 137.085 78.11 137.189C77.7882 137.293 77.5116 137.504 77.3262 137.787C77.1935 138.155 77.1685 138.553 77.254 138.935C77.449 140.552 77.7955 142.198 77.4779 143.794C77.4713 143.896 77.4427 143.997 77.3942 144.088C77.3456 144.179 77.2781 144.258 77.1963 144.321C76.8569 144.516 76.2866 143.281 76.0339 143.035C75.8014 142.75 75.4686 142.564 75.1035 142.516C74.7385 142.467 74.3688 142.56 74.07 142.776C73.8245 142.985 74.3949 143.534 74.792 144.768C75.2541 146.335 75.0592 147.656 75.9689 149.165C76.1625 149.526 76.2814 149.923 76.3187 150.331C76.3559 150.739 76.3106 151.15 76.1855 151.541V151.541Z" fill="#FEF1CF"/>
<path d="M56.0128 171.222L65.1316 167.042C65.1316 167.042 66.6767 166.999 68.6189 169.98C69.188 170.866 69.5755 171.855 69.7589 172.891C69.9424 173.927 69.9181 174.99 69.6874 176.016L62.7707 181.309L56.0128 171.222Z" fill="#455A64"/>
<path d="M40.1866 172.594C37.4285 173.157 36.5766 174.479 36.2733 176.926C36.0644 179.182 36.2774 181.456 36.9015 183.634L38.4971 193.612L38.4321 206.492C44.3525 209.835 57.7384 211.106 65.8681 205.294C65.8681 205.294 64.8284 184.543 64.2653 180.471C63.2833 173.41 60.3881 170.897 56.9947 171.128L47.1827 171.836C44.8345 171.906 42.4953 172.16 40.1866 172.594V172.594Z" fill="#92B1E3"/>
<path d="M63.1679 197.907L51.031 191.619C51.031 191.619 48.5618 187.099 45.7532 181.309C40.9519 174.002 38.4755 173.576 38.4755 173.576C32.9377 176.659 35.1398 181.366 42.5981 195.662C44.0421 198.449 45.9698 199.142 49.8758 200.543C52.3595 201.438 53.6736 201.929 58.4676 203.431C59.6156 203.792 61.0741 204.203 62.0776 204.506C63.7455 205.034 64.8718 205.553 66.6046 206.052C68.2031 206.618 69.8723 206.961 71.5647 207.07C72.811 207.157 74.058 206.908 75.1747 206.348C76.3294 205.575 77.2289 204.477 77.7595 203.192C77.9375 202.88 78.0023 202.515 77.9432 202.16C77.884 201.805 77.7044 201.481 77.4346 201.243C77.0691 201.049 76.6557 200.964 76.2433 200.998C74.5177 200.947 72.7416 201.055 71.1171 200.471C71.0089 200.448 70.9067 200.403 70.8172 200.338C70.7276 200.273 70.6527 200.191 70.5972 200.095C70.4528 199.712 71.8319 199.301 72.1279 199.077C72.4614 198.875 72.7068 198.555 72.8152 198.18C72.9235 197.806 72.8869 197.404 72.7127 197.055C72.5322 196.767 71.868 197.279 70.5467 197.474C68.8211 197.72 67.4926 197.308 65.7526 198.023C65.3367 198.181 64.8928 198.253 64.4483 198.233C64.0037 198.213 63.5679 198.102 63.1679 197.907V197.907Z" fill="#FEF1CF"/>
<path d="M39.0675 172.897C34.2445 174.5 34.5116 178.24 34.8437 180.038C35.1517 181.564 35.6667 183.041 36.3744 184.428C38.1433 188.471 41.515 194.853 41.515 194.853C41.515 194.853 45.486 194.427 50.54 189.886C50.54 189.886 44.6269 178.255 44.042 177.114C43.5294 176.168 41.6017 173.042 39.0675 172.897Z" fill="#455A64"/>
<path d="M63.1606 152.92C63.1472 154.335 62.718 155.715 61.9264 156.889C61.1348 158.062 60.0157 158.977 58.7083 159.52C57.4008 160.062 55.9628 160.209 54.5729 159.94C53.183 159.672 51.9027 159.001 50.891 158.011C49.8793 157.021 49.181 155.756 48.8829 154.372C48.5848 152.988 48.7 151.547 49.2142 150.228C49.7284 148.909 50.619 147.771 51.7751 146.954C52.9313 146.137 54.302 145.679 55.7168 145.635C56.6839 145.624 57.6436 145.804 58.5412 146.165C59.4387 146.525 60.2564 147.059 60.9476 147.735C61.6388 148.412 62.1901 149.218 62.5698 150.107C62.9495 150.997 63.1503 151.952 63.1606 152.92V152.92Z" fill="#263238"/>
<path d="M41.2407 159.114C41.2407 159.114 42.6847 164.948 43.1901 165.901C43.5403 166.489 44.1043 166.918 44.764 167.1L44.5619 162.97L41.2407 159.114Z" fill="#263238"/>
<path d="M42.5981 150.66C42.1602 150.621 41.7192 150.683 41.3088 150.841C40.8984 150.998 40.5294 151.248 40.2299 151.57C39.2264 152.652 39.8978 155.902 41.2696 159.114L43.6306 159.317L42.5981 150.66Z" fill="#263238"/>
<path d="M44.3092 159.302C43.8471 159.598 43.1468 158.71 42.5475 158.118C41.9482 157.526 40.0205 156.746 39.1324 158.768C38.2444 160.789 40.0999 163.468 41.6089 163.901C44.2153 164.623 44.5547 162.97 44.5547 162.97L45.0167 172.262C45.6207 173.493 46.5206 174.555 47.6357 175.352C48.7509 176.15 50.0465 176.658 51.4064 176.832C55.9984 177.323 55.8467 173.497 54.2944 171.692L54.215 169.078C55.3545 169.108 56.4919 168.962 57.5868 168.645C59.0308 168.212 60.1138 167.302 61.009 165.035C62.2076 162.017 62.287 158.761 61.1679 152.681C59.8683 145.635 51.1537 145.678 46.7712 148.617C42.3887 151.555 44.3092 159.302 44.3092 159.302Z" fill="#FEF1CF"/>
<path d="M45.7315 154.551C45.3778 156.595 45.1323 160.053 44.3309 160.096C44.0926 160.096 43.1468 158.652 42.5475 158.118C42.2804 157.887 42.2587 157.396 42.2298 157.042C42.1132 155.818 42.0866 154.588 42.1504 153.36C42.2154 152.046 41.9627 150.588 42.3454 149.317C42.6668 148.346 43.3215 147.519 44.1937 146.985C46.1214 145.757 48.7062 145.808 50.8794 145.31C53.4389 144.785 55.884 143.807 58.0994 142.422L58.7709 141.996C58.9582 141.85 59.1904 141.773 59.4279 141.779C59.5281 141.795 59.6233 141.834 59.706 141.893C59.7887 141.952 59.8566 142.029 59.9044 142.118C60.0034 142.297 60.0671 142.493 60.0921 142.696C60.1991 143.304 60.2162 143.924 60.1427 144.537C60.1575 145.086 60.028 145.628 59.7672 146.111L61.3701 145.079C61.4702 144.992 61.5988 144.946 61.7311 144.949C61.9477 144.949 62.0343 145.245 62.0632 145.461C62.1222 146.386 61.9474 147.31 61.5549 148.149C61.1625 148.988 60.5651 149.715 59.8178 150.263C58.3059 151.341 56.5231 151.976 54.6699 152.097C52.8288 152.284 50.9805 152.176 49.1322 152.19C48.3375 152.112 47.5358 152.234 46.8001 152.544C46.4954 152.789 46.2436 153.093 46.06 153.438C45.8763 153.783 45.7646 154.162 45.7315 154.551V154.551Z" fill="#263238"/>
<path d="M42.598 151.18L39.71 149.736C39.7941 149.536 39.9186 149.357 40.0758 149.208C40.233 149.06 40.4194 148.945 40.6231 148.873C40.8267 148.8 41.0433 148.771 41.259 148.786C41.4747 148.802 41.6848 148.862 41.876 148.963C42.2567 149.17 42.5437 149.516 42.6779 149.928C42.8122 150.34 42.7836 150.788 42.598 151.18V151.18Z" fill="#263238"/>
<path d="M54.215 169.078C54.215 169.078 49.652 168.739 47.5509 167.475C46.7086 167.001 45.9986 166.324 45.486 165.504C45.7023 166.375 46.123 167.182 46.7134 167.858C48.8217 170.212 54.2944 170.522 54.2944 170.522L54.215 169.078Z" fill="#FFE8AC"/>
<path d="M52.2945 158.031C52.293 158.22 52.2361 158.404 52.131 158.56C52.0258 158.716 51.877 158.838 51.7031 158.91C51.5292 158.983 51.3379 159.002 51.1529 158.967C50.9679 158.931 50.7975 158.842 50.6628 158.71C50.5282 158.579 50.4352 158.41 50.3956 158.226C50.3559 158.042 50.3713 157.85 50.4397 157.675C50.5082 157.499 50.6268 157.348 50.7807 157.239C50.9346 157.131 51.1171 157.07 51.3054 157.064C51.434 157.062 51.5617 157.086 51.6811 157.133C51.8006 157.181 51.9094 157.252 52.0014 157.342C52.0933 157.432 52.1666 157.539 52.2169 157.657C52.2672 157.776 52.2936 157.903 52.2945 158.031Z" fill="#263238"/>
<path d="M50.966 155.18L48.966 156.364C48.8133 156.089 48.7724 155.766 48.8518 155.462C48.9311 155.158 49.1246 154.897 49.392 154.732C49.5242 154.656 49.6704 154.607 49.8218 154.588C49.9732 154.569 50.1268 154.581 50.2736 154.623C50.4204 154.665 50.5572 154.736 50.6762 154.831C50.7951 154.927 50.8936 155.045 50.966 155.18V155.18Z" fill="#263238"/>
<path d="M51.8974 163.172L55.6951 164.479C55.6205 164.733 55.4952 164.97 55.3268 165.176C55.1584 165.381 54.9503 165.55 54.715 165.672C54.4797 165.795 54.222 165.869 53.9574 165.89C53.6929 165.91 53.4269 165.877 53.1753 165.793C52.6646 165.606 52.246 165.229 52.0077 164.74C51.7694 164.251 51.7298 163.689 51.8974 163.172V163.172Z" fill="#FFCFAC"/>
<path opacity="0.6" d="M52.8433 164.284C52.5298 164.305 52.23 164.421 51.9841 164.616C52.0891 164.893 52.2534 165.144 52.4654 165.351C52.6774 165.558 52.932 165.716 53.2115 165.815C53.6289 165.966 54.0864 165.966 54.5038 165.815C54.4974 165.604 54.4491 165.398 54.3617 165.206C54.2743 165.015 54.1497 164.843 53.9951 164.7C53.8404 164.558 53.6589 164.448 53.4611 164.376C53.2633 164.305 53.0533 164.273 52.8433 164.284V164.284Z" fill="#F28F8F"/>
<path d="M60.3954 155.439L58.4821 154.068C58.5653 153.94 58.6739 153.83 58.801 153.746C58.9281 153.662 59.071 153.604 59.2212 153.577C59.3713 153.55 59.5253 153.554 59.6738 153.589C59.8224 153.623 59.9623 153.688 60.0849 153.779C60.3424 153.961 60.5188 154.236 60.5767 154.546C60.6347 154.856 60.5696 155.177 60.3954 155.439Z" fill="#263238"/>
<path d="M59.9622 157.396C59.9593 157.583 59.9016 157.764 59.7964 157.918C59.6912 158.073 59.5431 158.192 59.3704 158.263C59.1976 158.334 59.008 158.352 58.8249 158.316C58.6418 158.28 58.4733 158.191 58.3404 158.06C58.2074 157.929 58.1159 157.762 58.0771 157.579C58.0382 157.397 58.0539 157.207 58.122 157.033C58.1902 156.859 58.3078 156.71 58.4604 156.602C58.613 156.495 58.7937 156.434 58.9803 156.429C59.1083 156.428 59.2352 156.452 59.3538 156.5C59.4724 156.548 59.5804 156.619 59.6716 156.709C59.7628 156.799 59.8354 156.906 59.8852 157.024C59.9351 157.141 59.9612 157.268 59.9622 157.396V157.396Z" fill="#263238"/>
<path d="M54.8793 156.898L55.3053 161.988L57.9406 161.006L54.8793 156.898Z" fill="#FFE8AC"/>
<path d="M78.337 129.238C77.523 128.841 76.6388 128.609 75.735 128.554C74.8311 128.498 73.9252 128.622 73.0691 128.917C72.2129 129.212 71.4233 129.673 70.7452 130.273C70.0671 130.873 69.5139 131.601 69.1171 132.415C68.7203 133.229 68.4877 134.113 68.4326 135.017C68.3775 135.921 68.501 136.827 68.7959 137.683C69.0909 138.539 69.5517 139.329 70.1518 140.007C70.752 140.685 71.4799 141.238 72.2939 141.635C78.1709 144.523 86.7338 141.014 86.7338 141.014C86.7338 141.014 84.2141 132.126 78.337 129.238ZM77.9327 136.711C77.6438 137.306 77.1848 137.802 76.6138 138.136C76.0428 138.471 75.3854 138.628 74.725 138.588C74.0645 138.548 73.4307 138.314 72.9037 137.914C72.3768 137.514 71.9804 136.966 71.7648 136.341C71.5492 135.715 71.5241 135.04 71.6926 134.4C71.8612 133.76 72.2158 133.185 72.7116 132.746C73.2073 132.308 73.822 132.027 74.4776 131.939C75.1333 131.85 75.8005 131.958 76.3948 132.249C77.1856 132.638 77.7909 133.323 78.0789 134.156C78.3669 134.989 78.3144 135.902 77.9327 136.696V136.711Z" fill="#92B1E3"/>
<path d="M161.67 54.0973C159.873 54.4355 158.283 55.4733 157.25 56.9827C156.217 58.4921 155.826 60.3497 156.161 62.1477C157.367 68.5807 165.28 73.3892 165.28 73.3892C165.28 73.3892 170.926 66.0392 169.721 59.6134C169.384 57.8147 168.347 56.2231 166.837 55.1887C165.328 54.1543 163.469 53.7618 161.67 54.0973V54.0973ZM163.475 63.7433C162.825 63.8649 162.154 63.791 161.546 63.531C160.938 63.271 160.421 62.8365 160.06 62.2825C159.699 61.7285 159.51 61.0799 159.518 60.4187C159.526 59.7575 159.729 59.1134 160.103 58.5679C160.477 58.0225 161.004 57.6001 161.618 57.3542C162.231 57.1084 162.904 57.0501 163.551 57.1867C164.198 57.3234 164.79 57.6488 165.252 58.1219C165.714 58.595 166.025 59.1945 166.147 59.8445C166.309 60.7157 166.119 61.6158 165.618 62.3469C165.117 63.078 164.346 63.5803 163.475 63.7433Z" fill="#92B1E3"/>
<path d="M243.018 71.512C241.516 70.4694 239.661 70.0663 237.861 70.3913C236.062 70.7162 234.465 71.7427 233.423 73.2448C229.69 78.6165 231.827 87.6342 231.827 87.6342C231.827 87.6342 241.025 86.4863 244.751 81.1362C245.272 80.3917 245.642 79.5513 245.837 78.6635C246.032 77.7757 246.05 76.8579 245.889 75.9633C245.728 75.0686 245.391 74.2146 244.898 73.4506C244.406 72.6867 243.767 72.0278 243.018 71.512V71.512ZM237.423 79.5695C236.879 79.1925 236.46 78.6628 236.218 78.0475C235.975 77.4321 235.921 76.7587 236.062 76.1125C236.202 75.4662 236.531 74.8762 237.007 74.4171C237.483 73.9579 238.085 73.6503 238.735 73.533C239.386 73.4158 240.057 73.4942 240.664 73.7585C241.27 74.0227 241.784 74.4608 242.141 75.0174C242.499 75.5739 242.683 76.2239 242.67 76.8852C242.658 77.5464 242.45 78.1891 242.072 78.732C241.822 79.0928 241.504 79.4008 241.135 79.6383C240.765 79.8757 240.353 80.038 239.921 80.1158C239.489 80.1936 239.046 80.1854 238.617 80.0917C238.189 79.9979 237.783 79.8205 237.423 79.5695V79.5695Z" fill="#455A64"/>
</svg>
