<svg width="64" height="64" version="1.1" viewBox="0 0 16.93 16.93" xmlns="http://www.w3.org/2000/svg">
		<g transform="translate(0 -292.8)" fill-rule="evenodd">
				<path d="m0.06684 309.7h16.89v-16.89h-16.89z" fill="#c4ffff"/>
				<path d="m1.122 299.2h14.78v1.056h-1.056v1.056h-1.056v1.056h-1.056v1.056h-1.056v1.056h-1.056v1.056h-1.056v1.056h-2.111v-1.056h-1.056v-1.056h-1.056l5e-7 -1.056h-1.056v-1.056h-1.056v-1.056h-1.056v-1.056h-1.056z" fill="#ffdc03"/>
				<path d="m1.122 300.2v2.111h1.056v1.056h1.056v1.056h1.056v1.056h1.056v1.056h2.111v-1.056h-1.056v-1.056h-1.056v-1.056h-1.056v-1.056h-1.056v-1.056h-1.056v-1.056h-1.056" fill="#ff5b00"/>
				<path d="m15.9 300.2v2.111h-1.056v1.056h-1.056v1.056h-1.056v1.056h-1.056v1.056h-2.111v-1.056h1.056v-1.056h1.056v-1.056h1.056v-1.056h1.056v-1.056h1.056v-1.056h1.056" fill="#ff5b00"/>
				<path d="m6.4 306.6v3.167h4.222v-3.167z" fill="#fff"/>
				<path d="m3.234 299.2v-1.056h1.056v-1.056h1.056v-1.056h1.056v-1.056h4.222v1.056h1.056v1.056h1.056v1.056h1.056v1.056h-10.56" fill="#bf7eff"/>
				<path d="m7.456 299.2v-2.111h2.111v2.111z" fill="#ac7244"/>
				<path d="m3.234 293.9h1.056v15.83h-1.056z" fill="#7b3600"/>
				<path d="m3.234 293.9h-2.111v2.111h2.111z" fill="#1772c9"/>
				<path d="m3.234 296h-2.111v2.111h2.111z" fill="#f00"/>
				<path d="m3.234 298.1h-2.111v2.111h2.111z" fill="#df3cff"/>
				<path d="m3.234 300.2h-2.111v2.111h2.111z" fill="#44ff67"/>
				<path d="m3.234 302.3h-2.111v2.111h2.111z" fill="#800080"/>
				<path d="m3.234 304.4h-2.111v2.111h2.111z" fill="#1772c9"/>
				<path d="m3.234 306.6h-2.111v2.111h2.111z" fill="#f00"/>
				<g fill="#ff5b00">
						<path d="m6.4 301.3h1.056v1.056h-1.056v-1.056"/>
						<path d="m9.567 301.3v1.056h1.056v-1.056z"/>
						<path d="m11.68 300.2h1.056v1.056h-1.056v-1.056"/>
						<path d="m5.345 300.2v1.056h-1.056v-1.056h1.056"/>
						<path d="m7.456 303.4h-1.056v1.056h1.056v-1.056"/>
						<path d="m9.567 303.4h1.056v1.056h-1.056v-1.056"/>
				</g>
		</g>
</svg>
